<svg xmlns="http://www.w3.org/2000/svg" xmlns:xlink="http://www.w3.org/1999/xlink" width="255" zoomAndPan="magnify" viewBox="0 0 191.25 48" height="64" preserveAspectRatio="xMidYMid meet" version="1.0"><defs><clipPath id="id1"><path d="M 39 28 L 122 28 L 122 47.019531 L 39 47.019531 Z M 39 28 " clip-rule="nonzero"/></clipPath><clipPath id="id2"><path d="M 17 0 L 173.378906 0 L 173.378906 28 L 17 28 Z M 17 0 " clip-rule="nonzero"/></clipPath></defs><g clip-path="url(#id1)"><path fill="rgb(100%, 59.999084%, 0%)" d="M 113.910156 36.871094 C 104.863281 43.5625 91.710938 47.132812 80.398438 47.132812 C 64.539062 47.132812 50.261719 41.261719 39.457031 31.488281 C 38.609375 30.71875 39.371094 29.671875 40.386719 30.269531 C 52.046875 37.066406 66.460938 41.148438 81.347656 41.148438 C 91.390625 41.148438 102.433594 39.070312 112.589844 34.75 C 114.125 34.097656 115.410156 35.757812 113.90625 36.871094 M 117.679688 32.554688 C 116.527344 31.070312 110.035156 31.855469 107.101562 32.203125 C 106.210938 32.3125 106.078125 31.535156 106.875 30.976562 C 112.054688 27.324219 120.554688 28.378906 121.550781 29.601562 C 122.542969 30.824219 121.292969 39.367188 116.425781 43.441406 C 115.675781 44.066406 114.964844 43.730469 115.296875 42.902344 C 116.386719 40.167969 118.839844 34.042969 117.679688 32.554688 " fill-opacity="1" fill-rule="evenodd"/></g><g clip-path="url(#id2)"><path fill="rgb(13.328552%, 12.159729%, 12.159729%)" d="M 107.304688 5.195312 L 107.304688 1.648438 C 107.300781 1.527344 107.324219 1.414062 107.367188 1.300781 C 107.410156 1.1875 107.476562 1.089844 107.5625 1.003906 C 107.644531 0.921875 107.746094 0.855469 107.855469 0.8125 C 107.96875 0.765625 108.082031 0.746094 108.203125 0.75 L 124.066406 0.75 C 124.578125 0.75 124.984375 1.117188 124.984375 1.648438 L 124.984375 4.6875 C 124.980469 5.195312 124.546875 5.863281 123.789062 6.917969 L 115.570312 18.671875 C 118.628906 18.597656 121.851562 19.054688 124.621094 20.617188 C 125.246094 20.972656 125.398438 21.488281 125.460938 22 L 125.460938 25.789062 C 125.460938 26.304688 124.890625 26.910156 124.292969 26.597656 C 119.410156 24.035156 112.925781 23.753906 107.53125 26.625 C 106.980469 26.921875 106.402344 26.324219 106.402344 25.808594 L 106.402344 22.210938 C 106.402344 21.632812 106.410156 20.648438 106.984375 19.769531 L 116.511719 6.085938 L 108.238281 6.085938 C 107.730469 6.085938 107.320312 5.726562 107.320312 5.195312 M 49.425781 27.34375 L 44.601562 27.34375 C 44.136719 27.3125 43.773438 26.964844 43.738281 26.523438 L 43.738281 1.710938 C 43.738281 1.210938 44.152344 0.820312 44.667969 0.820312 L 49.167969 0.820312 C 49.636719 0.839844 50.011719 1.199219 50.042969 1.648438 L 50.042969 4.890625 L 50.132812 4.890625 C 51.308594 1.753906 53.515625 0.292969 56.488281 0.292969 C 59.507812 0.292969 61.398438 1.753906 62.753906 4.890625 C 63.925781 1.753906 66.578125 0.292969 69.421875 0.292969 C 71.445312 0.292969 73.660156 1.128906 75.011719 3.003906 C 76.539062 5.09375 76.226562 8.125 76.226562 10.785156 L 76.214844 26.445312 C 76.214844 26.945312 75.800781 27.34375 75.285156 27.34375 L 70.449219 27.34375 C 69.984375 27.3125 69.582031 26.921875 69.582031 26.445312 L 69.582031 13.277344 C 69.582031 12.230469 69.675781 9.621094 69.445312 8.628906 C 69.085938 6.960938 68.007812 6.492188 66.609375 6.492188 C 65.4375 6.492188 64.21875 7.273438 63.722656 8.527344 C 63.226562 9.777344 63.273438 11.871094 63.273438 13.28125 L 63.273438 26.433594 C 63.273438 26.929688 62.859375 27.332031 62.34375 27.332031 L 57.507812 27.332031 C 57.019531 27.296875 56.640625 26.910156 56.640625 26.433594 L 56.632812 13.28125 C 56.632812 10.511719 57.089844 6.4375 53.660156 6.4375 C 50.191406 6.4375 50.328125 10.410156 50.328125 13.28125 L 50.328125 26.433594 C 50.328125 26.929688 49.914062 27.332031 49.398438 27.332031 M 138.644531 0.3125 C 145.808594 0.3125 149.683594 6.472656 149.683594 14.304688 C 149.683594 21.875 145.402344 27.878906 138.644531 27.878906 C 131.625 27.878906 127.78125 21.71875 127.78125 14.039062 C 127.78125 6.316406 131.660156 0.292969 138.644531 0.292969 M 138.6875 5.359375 C 135.128906 5.359375 134.902344 10.214844 134.902344 13.242188 C 134.902344 16.265625 134.855469 22.746094 138.644531 22.746094 C 142.382812 22.746094 142.5625 17.523438 142.5625 14.34375 C 142.5625 12.25 142.472656 9.746094 141.84375 7.757812 C 141.300781 6.03125 140.222656 5.359375 138.6875 5.359375 M 158.976562 27.34375 L 154.167969 27.34375 C 153.699219 27.3125 153.300781 26.921875 153.300781 26.445312 L 153.292969 1.628906 C 153.332031 1.171875 153.734375 0.820312 154.222656 0.820312 L 158.699219 0.820312 C 159.121094 0.839844 159.464844 1.125 159.5625 1.511719 L 159.5625 5.308594 L 159.652344 5.308594 C 161 1.914062 162.894531 0.296875 166.230469 0.296875 C 168.414062 0.296875 170.507812 1.078125 171.863281 3.222656 C 173.113281 5.203125 173.113281 8.542969 173.113281 10.945312 L 173.113281 26.566406 C 173.058594 27.003906 172.65625 27.347656 172.183594 27.347656 L 167.363281 27.347656 C 166.921875 27.3125 166.554688 26.988281 166.507812 26.566406 L 166.507812 13.089844 C 166.507812 10.378906 166.820312 6.40625 163.488281 6.40625 C 162.3125 6.40625 161.234375 7.195312 160.679688 8.390625 C 160 9.902344 159.914062 11.414062 159.914062 13.085938 L 159.914062 26.449219 C 159.90625 26.945312 159.484375 27.347656 158.96875 27.347656 M 94.667969 15.476562 C 94.667969 17.359375 94.714844 18.914062 93.765625 20.601562 C 92.996094 21.960938 91.777344 22.800781 90.421875 22.800781 C 88.570312 22.800781 87.484375 21.386719 87.484375 19.296875 C 87.484375 15.175781 91.171875 14.429688 94.664062 14.429688 L 94.664062 15.472656 M 99.53125 27.257812 C 99.210938 27.546875 98.753906 27.566406 98.394531 27.375 C 96.792969 26.042969 96.5 25.421875 95.625 24.152344 C 92.976562 26.859375 91.09375 27.667969 87.664062 27.667969 C 83.597656 27.667969 80.441406 25.160156 80.441406 20.132812 C 80.441406 16.207031 82.558594 13.539062 85.589844 12.230469 C 88.207031 11.074219 91.867188 10.871094 94.664062 10.550781 L 94.664062 9.925781 C 94.664062 8.777344 94.753906 7.417969 94.074219 6.425781 C 93.488281 5.535156 92.363281 5.167969 91.363281 5.167969 C 89.523438 5.167969 87.886719 6.113281 87.484375 8.074219 C 87.40625 8.511719 87.085938 8.9375 86.644531 8.957031 L 81.964844 8.453125 C 81.570312 8.367188 81.128906 8.046875 81.246094 7.4375 C 82.320312 1.753906 87.457031 0.0390625 92.039062 0.0390625 C 94.390625 0.0390625 97.460938 0.664062 99.3125 2.445312 C 101.660156 4.644531 101.4375 7.574219 101.4375 10.761719 L 101.4375 18.296875 C 101.4375 20.5625 102.371094 21.554688 103.257812 22.78125 C 103.5625 23.21875 103.632812 23.738281 103.238281 24.066406 L 99.542969 27.289062 L 99.535156 27.273438 M 31.382812 15.492188 C 31.382812 17.375 31.429688 18.929688 30.476562 20.617188 C 29.710938 21.976562 28.496094 22.816406 27.136719 22.816406 C 25.285156 22.816406 24.203125 21.402344 24.203125 19.3125 C 24.203125 15.191406 27.890625 14.445312 31.378906 14.445312 L 31.378906 15.488281 M 36.246094 27.273438 C 35.925781 27.5625 35.464844 27.582031 35.105469 27.390625 C 33.503906 26.058594 33.234375 25.4375 32.335938 24.167969 C 29.6875 26.875 27.8125 27.683594 24.378906 27.683594 C 20.320312 27.683594 17.15625 25.175781 17.15625 20.152344 C 17.15625 16.226562 19.28125 13.554688 22.304688 12.25 C 24.925781 11.09375 28.585938 10.890625 31.382812 10.570312 L 31.382812 9.945312 C 31.382812 8.796875 31.472656 7.4375 30.800781 6.445312 C 30.207031 5.554688 29.082031 5.1875 28.089844 5.1875 C 26.25 5.1875 24.605469 6.132812 24.191406 8.09375 C 24.109375 8.527344 23.789062 8.957031 23.355469 8.976562 L 18.671875 8.472656 C 18.277344 8.382812 17.84375 8.066406 17.953125 7.457031 C 19.03125 1.769531 24.160156 0.0585938 28.746094 0.0585938 C 31.09375 0.0585938 34.164062 0.683594 36.019531 2.464844 C 38.367188 4.660156 38.140625 7.59375 38.140625 10.78125 L 38.140625 18.316406 C 38.140625 20.582031 39.078125 21.574219 39.960938 22.800781 C 40.273438 23.238281 40.34375 23.757812 39.945312 24.085938 L 36.265625 27.289062 L 36.25 27.273438 " fill-opacity="1" fill-rule="evenodd"/></g></svg>