<svg xmlns="http://www.w3.org/2000/svg" xmlns:xlink="http://www.w3.org/1999/xlink" width="255" zoomAndPan="magnify" viewBox="0 0 191.25 48" height="64" preserveAspectRatio="xMidYMid meet" version="1.0"><defs><clipPath id="id1"><path d="M 66 25 L 79 25 L 79 42.625 L 66 42.625 Z M 66 25 " clip-rule="nonzero"/></clipPath><clipPath id="id2"><path d="M 81 25 L 94 25 L 94 42.625 L 81 42.625 Z M 81 25 " clip-rule="nonzero"/></clipPath><clipPath id="id3"><path d="M 173 25 L 184.082031 25 L 184.082031 39 L 173 39 Z M 173 25 " clip-rule="nonzero"/></clipPath><clipPath id="id4"><path d="M 6.285156 4.421875 L 42 4.421875 L 42 41 L 6.285156 41 Z M 6.285156 4.421875 " clip-rule="nonzero"/></clipPath><clipPath id="id5"><path d="M 41.835938 15.734375 C 41.835938 15.308594 41.835938 14.882812 41.832031 14.457031 C 41.832031 14.097656 41.828125 13.742188 41.816406 13.382812 C 41.796875 12.601562 41.75 11.816406 41.613281 11.042969 C 41.472656 10.261719 41.242188 9.53125 40.878906 8.820312 C 40.523438 8.121094 40.0625 7.480469 39.507812 6.925781 C 38.953125 6.371094 38.316406 5.90625 37.617188 5.550781 C 36.90625 5.1875 36.179688 4.957031 35.398438 4.816406 C 34.625 4.679688 33.839844 4.632812 33.0625 4.613281 C 32.703125 4.601562 32.347656 4.597656 31.988281 4.597656 C 31.566406 4.59375 31.140625 4.59375 30.714844 4.59375 L 17.40625 4.59375 C 16.980469 4.59375 16.558594 4.59375 16.132812 4.597656 C 15.773438 4.597656 15.417969 4.601562 15.058594 4.613281 C 14.28125 4.632812 13.496094 4.679688 12.722656 4.816406 C 11.941406 4.957031 11.214844 5.1875 10.503906 5.550781 C 9.808594 5.90625 9.167969 6.371094 8.613281 6.925781 C 8.0625 7.480469 7.597656 8.121094 7.242188 8.820312 C 6.878906 9.53125 6.652344 10.261719 6.511719 11.042969 C 6.371094 11.816406 6.324219 12.601562 6.304688 13.382812 C 6.296875 13.742188 6.289062 14.097656 6.289062 14.457031 C 6.285156 14.882812 6.285156 15.308594 6.285156 15.734375 L 6.285156 29.0625 C 6.285156 29.488281 6.285156 29.914062 6.289062 30.339844 C 6.289062 30.699219 6.296875 31.054688 6.304688 31.414062 C 6.324219 32.195312 6.371094 32.980469 6.511719 33.753906 C 6.652344 34.535156 6.878906 35.265625 7.242188 35.976562 C 7.597656 36.675781 8.0625 37.316406 8.613281 37.871094 C 9.167969 38.425781 9.808594 38.890625 10.503906 39.246094 C 11.214844 39.609375 11.941406 39.835938 12.722656 39.980469 C 13.496094 40.117188 14.28125 40.164062 15.058594 40.183594 C 15.417969 40.195312 15.773438 40.199219 16.132812 40.199219 C 16.558594 40.203125 16.980469 40.203125 17.40625 40.203125 L 30.714844 40.203125 C 31.140625 40.203125 31.566406 40.203125 31.988281 40.199219 C 32.347656 40.199219 32.703125 40.195312 33.0625 40.183594 C 33.839844 40.164062 34.628906 40.117188 35.398438 39.980469 C 36.179688 39.835938 36.90625 39.609375 37.617188 39.246094 C 38.316406 38.890625 38.953125 38.425781 39.507812 37.871094 C 40.0625 37.316406 40.523438 36.675781 40.878906 35.976562 C 41.242188 35.265625 41.472656 34.535156 41.613281 33.753906 C 41.75 32.980469 41.796875 32.195312 41.816406 31.414062 C 41.828125 31.054688 41.832031 30.699219 41.832031 30.339844 C 41.835938 29.914062 41.835938 29.488281 41.835938 29.0625 Z M 41.835938 15.734375 " clip-rule="nonzero"/></clipPath><linearGradient x1="12.582" gradientTransform="matrix(1.412761, 0, 0, 1.415131, 6.286223, 4.593625)" y1="-0.0000992769" x2="12.582" gradientUnits="userSpaceOnUse" y2="25.163197" xlink:type="simple" xlink:actuate="onLoad" id="id6" xlink:show="other"><stop stop-opacity="1" stop-color="rgb(100%, 65.899658%, 4.299927%)" offset="0"/><stop stop-opacity="1" stop-color="rgb(99.958801%, 65.733337%, 4.3396%)" offset="0.015625"/><stop stop-opacity="1" stop-color="rgb(99.879456%, 65.402222%, 4.418945%)" offset="0.03125"/><stop stop-opacity="1" stop-color="rgb(99.80011%, 65.071106%, 4.498291%)" offset="0.046875"/><stop stop-opacity="1" stop-color="rgb(99.720764%, 64.73999%, 4.577637%)" offset="0.0625"/><stop stop-opacity="1" stop-color="rgb(99.639893%, 64.407349%, 4.656982%)" offset="0.078125"/><stop stop-opacity="1" stop-color="rgb(99.560547%, 64.076233%, 4.737854%)" offset="0.09375"/><stop stop-opacity="1" stop-color="rgb(99.481201%, 63.745117%, 4.8172%)" offset="0.109375"/><stop stop-opacity="1" stop-color="rgb(99.401855%, 63.414001%, 4.896545%)" offset="0.125"/><stop stop-opacity="1" stop-color="rgb(99.320984%, 63.082886%, 4.975891%)" offset="0.140625"/><stop stop-opacity="1" stop-color="rgb(99.241638%, 62.75177%, 5.056763%)" offset="0.15625"/><stop stop-opacity="1" stop-color="rgb(99.162292%, 62.420654%, 5.136108%)" offset="0.171875"/><stop stop-opacity="1" stop-color="rgb(99.082947%, 62.089539%, 5.215454%)" offset="0.1875"/><stop stop-opacity="1" stop-color="rgb(99.003601%, 61.758423%, 5.2948%)" offset="0.203125"/><stop stop-opacity="1" stop-color="rgb(98.922729%, 61.427307%, 5.374146%)" offset="0.21875"/><stop stop-opacity="1" stop-color="rgb(98.843384%, 61.096191%, 5.455017%)" offset="0.234375"/><stop stop-opacity="1" stop-color="rgb(98.764038%, 60.76355%, 5.534363%)" offset="0.25"/><stop stop-opacity="1" stop-color="rgb(98.684692%, 60.432434%, 5.613708%)" offset="0.265625"/><stop stop-opacity="1" stop-color="rgb(98.603821%, 60.101318%, 5.693054%)" offset="0.28125"/><stop stop-opacity="1" stop-color="rgb(98.524475%, 59.770203%, 5.773926%)" offset="0.296875"/><stop stop-opacity="1" stop-color="rgb(98.445129%, 59.439087%, 5.853271%)" offset="0.3125"/><stop stop-opacity="1" stop-color="rgb(98.365784%, 59.107971%, 5.932617%)" offset="0.328125"/><stop stop-opacity="1" stop-color="rgb(98.286438%, 58.776855%, 6.011963%)" offset="0.34375"/><stop stop-opacity="1" stop-color="rgb(98.205566%, 58.44574%, 6.091309%)" offset="0.359375"/><stop stop-opacity="1" stop-color="rgb(98.126221%, 58.114624%, 6.17218%)" offset="0.375"/><stop stop-opacity="1" stop-color="rgb(98.046875%, 57.783508%, 6.251526%)" offset="0.390625"/><stop stop-opacity="1" stop-color="rgb(97.967529%, 57.452393%, 6.330872%)" offset="0.40625"/><stop stop-opacity="1" stop-color="rgb(97.886658%, 57.119751%, 6.410217%)" offset="0.421875"/><stop stop-opacity="1" stop-color="rgb(97.807312%, 56.788635%, 6.491089%)" offset="0.4375"/><stop stop-opacity="1" stop-color="rgb(97.727966%, 56.45752%, 6.570435%)" offset="0.453125"/><stop stop-opacity="1" stop-color="rgb(97.648621%, 56.126404%, 6.64978%)" offset="0.46875"/><stop stop-opacity="1" stop-color="rgb(97.569275%, 55.795288%, 6.729126%)" offset="0.484375"/><stop stop-opacity="1" stop-color="rgb(97.488403%, 55.464172%, 6.808472%)" offset="0.5"/><stop stop-opacity="1" stop-color="rgb(97.409058%, 55.133057%, 6.889343%)" offset="0.515625"/><stop stop-opacity="1" stop-color="rgb(97.329712%, 54.801941%, 6.968689%)" offset="0.53125"/><stop stop-opacity="1" stop-color="rgb(97.250366%, 54.470825%, 7.048035%)" offset="0.546875"/><stop stop-opacity="1" stop-color="rgb(97.169495%, 54.139709%, 7.12738%)" offset="0.5625"/><stop stop-opacity="1" stop-color="rgb(97.090149%, 53.808594%, 7.208252%)" offset="0.578125"/><stop stop-opacity="1" stop-color="rgb(97.010803%, 53.475952%, 7.287598%)" offset="0.59375"/><stop stop-opacity="1" stop-color="rgb(96.931458%, 53.144836%, 7.366943%)" offset="0.609375"/><stop stop-opacity="1" stop-color="rgb(96.852112%, 52.813721%, 7.446289%)" offset="0.625"/><stop stop-opacity="1" stop-color="rgb(96.77124%, 52.482605%, 7.527161%)" offset="0.640625"/><stop stop-opacity="1" stop-color="rgb(96.691895%, 52.151489%, 7.606506%)" offset="0.65625"/><stop stop-opacity="1" stop-color="rgb(96.612549%, 51.820374%, 7.685852%)" offset="0.671875"/><stop stop-opacity="1" stop-color="rgb(96.533203%, 51.489258%, 7.765198%)" offset="0.6875"/><stop stop-opacity="1" stop-color="rgb(96.452332%, 51.158142%, 7.844543%)" offset="0.703125"/><stop stop-opacity="1" stop-color="rgb(96.372986%, 50.827026%, 7.925415%)" offset="0.71875"/><stop stop-opacity="1" stop-color="rgb(96.29364%, 50.495911%, 8.004761%)" offset="0.734375"/><stop stop-opacity="1" stop-color="rgb(96.214294%, 50.164795%, 8.084106%)" offset="0.75"/><stop stop-opacity="1" stop-color="rgb(96.134949%, 49.832153%, 8.163452%)" offset="0.765625"/><stop stop-opacity="1" stop-color="rgb(96.054077%, 49.501038%, 8.244324%)" offset="0.78125"/><stop stop-opacity="1" stop-color="rgb(95.974731%, 49.169922%, 8.323669%)" offset="0.796875"/><stop stop-opacity="1" stop-color="rgb(95.895386%, 48.838806%, 8.403015%)" offset="0.8125"/><stop stop-opacity="1" stop-color="rgb(95.81604%, 48.50769%, 8.482361%)" offset="0.828125"/><stop stop-opacity="1" stop-color="rgb(95.735168%, 48.176575%, 8.561707%)" offset="0.84375"/><stop stop-opacity="1" stop-color="rgb(95.655823%, 47.845459%, 8.642578%)" offset="0.859375"/><stop stop-opacity="1" stop-color="rgb(95.576477%, 47.514343%, 8.721924%)" offset="0.875"/><stop stop-opacity="1" stop-color="rgb(95.497131%, 47.183228%, 8.80127%)" offset="0.890625"/><stop stop-opacity="1" stop-color="rgb(95.41626%, 46.852112%, 8.880615%)" offset="0.90625"/><stop stop-opacity="1" stop-color="rgb(95.336914%, 46.520996%, 8.961487%)" offset="0.921875"/><stop stop-opacity="1" stop-color="rgb(95.257568%, 46.188354%, 9.040833%)" offset="0.9375"/><stop stop-opacity="1" stop-color="rgb(95.178223%, 45.857239%, 9.120178%)" offset="0.953125"/><stop stop-opacity="1" stop-color="rgb(95.098877%, 45.526123%, 9.199524%)" offset="0.96875"/><stop stop-opacity="1" stop-color="rgb(95.018005%, 45.195007%, 9.27887%)" offset="0.984375"/><stop stop-opacity="1" stop-color="rgb(94.93866%, 44.863892%, 9.359741%)" offset="1"/></linearGradient></defs><path fill="rgb(0%, 0%, 0%)" d="M 60.808594 33.464844 L 54.121094 33.464844 L 52.515625 38.214844 L 49.683594 38.214844 L 56.015625 20.640625 L 58.960938 20.640625 L 65.292969 38.214844 L 62.414062 38.214844 Z M 54.816406 31.273438 L 60.113281 31.273438 L 57.503906 23.566406 L 57.429688 23.566406 Z M 54.816406 31.273438 " fill-opacity="1" fill-rule="nonzero"/><g clip-path="url(#id1)"><path fill="rgb(0%, 0%, 0%)" d="M 78.972656 31.808594 C 78.972656 35.863281 76.847656 38.433594 73.636719 38.433594 C 71.800781 38.433594 70.339844 37.53125 69.613281 36.109375 L 69.550781 36.109375 L 69.550781 42.453125 L 66.925781 42.453125 L 66.925781 25.402344 L 69.464844 25.402344 L 69.464844 27.605469 L 69.515625 27.605469 C 70.269531 26.132812 71.738281 25.195312 73.585938 25.195312 C 76.832031 25.195312 78.972656 27.753906 78.972656 31.808594 Z M 76.273438 31.808594 C 76.273438 29.128906 74.972656 27.414062 72.894531 27.414062 C 70.890625 27.414062 69.539062 29.167969 69.539062 31.808594 C 69.539062 34.476562 70.875 36.207031 72.894531 36.207031 C 74.972656 36.207031 76.273438 34.5 76.273438 31.808594 Z M 76.273438 31.808594 " fill-opacity="1" fill-rule="nonzero"/></g><g clip-path="url(#id2)"><path fill="rgb(0%, 0%, 0%)" d="M 93.050781 31.808594 C 93.050781 35.863281 90.925781 38.433594 87.714844 38.433594 C 85.878906 38.433594 84.417969 37.53125 83.6875 36.109375 L 83.628906 36.109375 L 83.628906 42.453125 L 81.003906 42.453125 L 81.003906 25.402344 L 83.542969 25.402344 L 83.542969 27.605469 L 83.59375 27.605469 C 84.347656 26.132812 85.816406 25.195312 87.664062 25.195312 C 90.910156 25.195312 93.050781 27.753906 93.050781 31.808594 Z M 90.351562 31.808594 C 90.351562 29.128906 89.050781 27.414062 86.972656 27.414062 C 84.96875 27.414062 83.617188 29.167969 83.617188 31.808594 C 83.617188 34.476562 84.953125 36.207031 86.972656 36.207031 C 89.050781 36.207031 90.351562 34.5 90.351562 31.808594 Z M 90.351562 31.808594 " fill-opacity="1" fill-rule="nonzero"/></g><path fill="rgb(0%, 0%, 0%)" d="M 95.175781 20.640625 L 97.804688 20.640625 L 97.804688 38.214844 L 95.175781 38.214844 Z M 95.175781 20.640625 " fill-opacity="1" fill-rule="nonzero"/><path fill="rgb(0%, 0%, 0%)" d="M 111.472656 34.453125 C 111.109375 36.789062 108.898438 38.457031 105.964844 38.457031 C 102.210938 38.457031 99.9375 35.914062 99.9375 31.871094 C 99.9375 27.851562 102.246094 25.171875 105.855469 25.171875 C 109.40625 25.171875 111.621094 27.679688 111.621094 31.566406 L 111.621094 32.464844 L 102.585938 32.464844 L 102.585938 32.625 C 102.585938 34.855469 103.921875 36.328125 106.027344 36.328125 C 107.523438 36.328125 108.628906 35.574219 108.980469 34.453125 Z M 102.597656 30.628906 L 108.992188 30.628906 C 108.933594 28.667969 107.691406 27.289062 105.855469 27.289062 C 104.019531 27.289062 102.734375 28.691406 102.597656 30.628906 Z M 102.597656 30.628906 " fill-opacity="1" fill-rule="nonzero"/><path fill="rgb(0%, 0%, 0%)" d="M 119.027344 38.214844 L 119.027344 20.640625 L 126.027344 20.640625 C 129.140625 20.640625 131.183594 22.371094 131.183594 25.027344 C 131.183594 26.886719 129.8125 28.558594 128.058594 28.847656 L 128.058594 28.949219 C 130.441406 29.214844 132.046875 30.90625 132.046875 33.246094 C 132.046875 36.339844 129.796875 38.214844 126.066406 38.214844 Z M 121.75 28.117188 L 124.800781 28.117188 C 127.160156 28.117188 128.460938 27.144531 128.460938 25.402344 C 128.460938 23.773438 127.34375 22.871094 125.371094 22.871094 L 121.75 22.871094 Z M 125.507812 35.984375 C 127.960938 35.984375 129.261719 34.976562 129.261719 33.074219 C 129.261719 31.175781 127.925781 30.203125 125.347656 30.203125 L 121.75 30.203125 L 121.75 35.984375 Z M 125.507812 35.984375 " fill-opacity="1" fill-rule="nonzero"/><path fill="rgb(0%, 0%, 0%)" d="M 133.769531 31.808594 C 133.769531 27.691406 136.1875 25.171875 139.835938 25.171875 C 143.484375 25.171875 145.902344 27.691406 145.902344 31.808594 C 145.902344 35.9375 143.496094 38.457031 139.835938 38.457031 C 136.175781 38.457031 133.769531 35.9375 133.769531 31.808594 Z M 143.226562 31.808594 C 143.226562 28.972656 141.890625 27.339844 139.835938 27.339844 C 137.78125 27.339844 136.445312 28.972656 136.445312 31.808594 C 136.445312 34.660156 137.78125 36.292969 139.835938 36.292969 C 141.902344 36.292969 143.226562 34.660156 143.226562 31.808594 Z M 143.226562 31.808594 " fill-opacity="1" fill-rule="nonzero"/><path fill="rgb(0%, 0%, 0%)" d="M 147.746094 31.808594 C 147.746094 27.691406 150.164062 25.171875 153.8125 25.171875 C 157.460938 25.171875 159.882812 27.691406 159.882812 31.808594 C 159.882812 35.9375 157.472656 38.457031 153.8125 38.457031 C 150.152344 38.457031 147.746094 35.9375 147.746094 31.808594 Z M 157.207031 31.808594 C 157.207031 28.972656 155.867188 27.339844 153.8125 27.339844 C 151.757812 27.339844 150.421875 28.972656 150.421875 31.808594 C 150.421875 34.660156 151.757812 36.292969 153.8125 36.292969 C 155.878906 36.292969 157.207031 34.660156 157.207031 31.808594 Z M 157.207031 31.808594 " fill-opacity="1" fill-rule="nonzero"/><path fill="rgb(0%, 0%, 0%)" d="M 169.835938 25.402344 L 172.925781 25.402344 L 167.625 30.917969 L 173.132812 38.214844 L 170.078125 38.214844 L 165.738281 32.527344 L 164.644531 33.613281 L 164.644531 38.214844 L 162.019531 38.214844 L 162.019531 20.640625 L 164.644531 20.640625 L 164.644531 30.894531 L 164.667969 30.894531 Z M 169.835938 25.402344 " fill-opacity="1" fill-rule="nonzero"/><g clip-path="url(#id3)"><path fill="rgb(0%, 0%, 0%)" d="M 178.792969 25.171875 C 181.773438 25.171875 183.707031 26.828125 183.789062 29.191406 L 181.320312 29.191406 C 181.175781 27.949219 180.265625 27.167969 178.792969 27.167969 C 177.371094 27.167969 176.421875 27.863281 176.421875 28.886719 C 176.421875 29.691406 177.007812 30.238281 178.394531 30.554688 L 180.472656 31.03125 C 183.085938 31.636719 184.082031 32.664062 184.082031 34.511719 C 184.082031 36.851562 181.90625 38.457031 178.890625 38.457031 C 175.691406 38.457031 173.773438 36.886719 173.53125 34.453125 L 176.128906 34.453125 C 176.375 35.792969 177.285156 36.449219 178.890625 36.449219 C 180.472656 36.449219 181.445312 35.792969 181.445312 34.742188 C 181.445312 33.914062 180.96875 33.429688 179.570312 33.113281 L 177.492188 32.625 C 175.0625 32.066406 173.859375 30.894531 173.859375 29.03125 C 173.859375 26.742188 175.851562 25.171875 178.792969 25.171875 Z M 178.792969 25.171875 " fill-opacity="1" fill-rule="nonzero"/></g><path fill="rgb(0%, 0%, 0%)" d="M 54.554688 14.945312 C 52.132812 14.945312 50.601562 13.21875 50.601562 10.449219 C 50.601562 7.71875 52.148438 5.960938 54.542969 5.960938 C 56.488281 5.960938 57.898438 7.066406 58.1875 8.800781 L 56.855469 8.800781 C 56.523438 7.765625 55.710938 7.203125 54.542969 7.203125 C 52.960938 7.203125 51.957031 8.457031 51.957031 10.4375 C 51.957031 12.457031 52.964844 13.703125 54.574219 13.703125 C 55.972656 13.703125 56.933594 12.847656 56.945312 11.578125 L 56.945312 11.394531 L 54.738281 11.394531 L 54.738281 10.277344 L 58.25 10.277344 L 58.25 11.347656 C 58.25 13.539062 56.796875 14.945312 54.554688 14.945312 Z M 54.554688 14.945312 " fill-opacity="1" fill-rule="nonzero"/><path fill="rgb(0%, 0%, 0%)" d="M 65.554688 12.992188 C 65.277344 14.144531 64.230469 14.863281 62.753906 14.863281 C 60.90625 14.863281 59.773438 13.589844 59.773438 11.523438 C 59.773438 9.457031 60.929688 8.144531 62.75 8.144531 C 64.546875 8.144531 65.628906 9.375 65.628906 11.40625 L 65.628906 11.851562 L 61.074219 11.851562 L 61.074219 11.921875 C 61.113281 13.058594 61.773438 13.777344 62.792969 13.777344 C 63.5625 13.777344 64.089844 13.496094 64.328125 12.992188 Z M 61.074219 10.90625 L 64.332031 10.90625 C 64.304688 9.890625 63.6875 9.234375 62.742188 9.234375 C 61.800781 9.234375 61.144531 9.898438 61.074219 10.90625 Z M 61.074219 10.90625 " fill-opacity="1" fill-rule="nonzero"/><path fill="rgb(0%, 0%, 0%)" d="M 69.054688 6.660156 L 69.054688 8.300781 L 70.453125 8.300781 L 70.453125 9.375 L 69.054688 9.375 L 69.054688 12.699219 C 69.054688 13.378906 69.335938 13.675781 69.96875 13.675781 C 70.164062 13.675781 70.277344 13.664062 70.453125 13.644531 L 70.453125 14.707031 C 70.246094 14.742188 70.011719 14.773438 69.761719 14.773438 C 68.34375 14.773438 67.78125 14.273438 67.78125 13.027344 L 67.78125 9.375 L 66.753906 9.375 L 66.753906 8.300781 L 67.78125 8.300781 L 67.78125 6.660156 Z M 69.054688 6.660156 " fill-opacity="1" fill-rule="nonzero"/><path fill="rgb(0%, 0%, 0%)" d="M 75.476562 6.316406 C 75.476562 5.855469 75.839844 5.480469 76.285156 5.480469 C 76.726562 5.480469 77.089844 5.855469 77.089844 6.316406 C 77.089844 6.773438 76.726562 7.148438 76.285156 7.148438 C 75.839844 7.148438 75.476562 6.773438 75.476562 6.316406 Z M 75.648438 8.269531 L 76.917969 8.269531 L 76.917969 14.738281 L 75.648438 14.738281 Z M 75.648438 8.269531 " fill-opacity="1" fill-rule="nonzero"/><path fill="rgb(0%, 0%, 0%)" d="M 80.691406 6.660156 L 80.691406 8.300781 L 82.09375 8.300781 L 82.09375 9.375 L 80.691406 9.375 L 80.691406 12.699219 C 80.691406 13.378906 80.972656 13.675781 81.605469 13.675781 C 81.800781 13.675781 81.914062 13.664062 82.09375 13.644531 L 82.09375 14.707031 C 81.882812 14.742188 81.648438 14.773438 81.398438 14.773438 C 79.980469 14.773438 79.417969 14.273438 79.417969 13.027344 L 79.417969 9.375 L 78.394531 9.375 L 78.394531 8.300781 L 79.417969 8.300781 L 79.417969 6.660156 Z M 80.691406 6.660156 " fill-opacity="1" fill-rule="nonzero"/><path fill="rgb(0%, 0%, 0%)" d="M 86.941406 11.5 C 86.941406 9.417969 88.105469 8.144531 89.988281 8.144531 C 91.867188 8.144531 93.03125 9.417969 93.03125 11.5 C 93.03125 13.597656 91.875 14.863281 89.988281 14.863281 C 88.097656 14.863281 86.941406 13.597656 86.941406 11.5 Z M 91.71875 11.5 C 91.71875 10.101562 91.089844 9.28125 89.988281 9.28125 C 88.878906 9.28125 88.257812 10.101562 88.257812 11.5 C 88.257812 12.914062 88.878906 13.726562 89.988281 13.726562 C 91.089844 13.726562 91.71875 12.910156 91.71875 11.5 Z M 91.71875 11.5 " fill-opacity="1" fill-rule="nonzero"/><path fill="rgb(0%, 0%, 0%)" d="M 94.730469 8.269531 L 95.957031 8.269531 L 95.957031 9.296875 L 96.050781 9.296875 C 96.367188 8.578125 97.007812 8.144531 97.980469 8.144531 C 99.417969 8.144531 100.214844 9.011719 100.214844 10.550781 L 100.214844 14.738281 L 98.9375 14.738281 L 98.9375 10.871094 C 98.9375 9.832031 98.488281 9.316406 97.546875 9.316406 C 96.605469 9.316406 96.003906 9.945312 96.003906 10.957031 L 96.003906 14.738281 L 94.730469 14.738281 Z M 94.730469 8.269531 " fill-opacity="1" fill-rule="nonzero"/><g clip-path="url(#id4)"><g clip-path="url(#id5)"><path fill="url(#id6)" d="M 6.285156 4.59375 L 6.285156 40.203125 L 41.835938 40.203125 L 41.835938 4.59375 Z M 6.285156 4.59375 " fill-rule="nonzero"/></g></g><path fill="rgb(100%, 100%, 100%)" d="M 22.75 14.625 C 23.332031 15.519531 23.691406 15.785156 23.691406 18.386719 C 23.691406 21.601562 23.691406 29.613281 23.691406 32.824219 C 23.691406 33.421875 23.691406 31.398438 21.625 29.867188 C 19.507812 28.230469 15.886719 28.121094 12.929688 30.269531 C 12.386719 30.675781 11.988281 30.601562 11.988281 30.003906 C 11.988281 26.789062 11.988281 19.203125 11.988281 15.992188 C 11.988281 15.394531 12.046875 14.742188 12.929688 14.097656 C 15.886719 11.945312 20.433594 11.910156 22.75 14.625 Z M 36.132812 15.992188 C 36.132812 15.394531 36.074219 14.742188 35.191406 14.097656 C 32.234375 11.945312 27.6875 11.910156 25.371094 14.625 C 24.789062 15.519531 24.429688 15.785156 24.429688 18.386719 C 24.429688 21.601562 24.429688 29.613281 24.429688 32.824219 C 24.429688 33.421875 24.433594 31.398438 26.496094 29.867188 C 28.613281 28.230469 32.234375 28.121094 35.191406 30.269531 C 35.734375 30.675781 36.132812 30.601562 36.132812 30.003906 C 36.132812 26.789062 36.132812 19.203125 36.132812 15.992188 Z M 36.132812 15.992188 " fill-opacity="1" fill-rule="nonzero"/></svg>