<svg xmlns="http://www.w3.org/2000/svg" xmlns:xlink="http://www.w3.org/1999/xlink" width="255" zoomAndPan="magnify" viewBox="0 0 191.25 48" height="64" preserveAspectRatio="xMidYMid meet" version="1.0"><defs><clipPath id="id1"><path d="M 27 0.617188 L 165 0.617188 L 165 46 L 27 46 Z M 27 0.617188 " clip-rule="nonzero"/></clipPath></defs><g clip-path="url(#id1)"><path fill="rgb(73.728943%, 44.709778%, 17.248535%)" d="M 101.960938 1.351562 C 97.609375 2.933594 95.902344 6.921875 97.269531 12.292969 C 97.476562 13.113281 97.597656 13.824219 97.535156 13.875 C 97.472656 13.925781 96.894531 14.363281 96.246094 14.851562 C 92.972656 17.3125 91.503906 20.386719 92.089844 23.535156 C 93 28.402344 99.003906 29.996094 103.273438 26.5 L 104.179688 25.757812 L 105.1875 26.683594 C 107.59375 28.882812 109.792969 28.90625 111.996094 26.75 C 112.863281 25.898438 112.898438 25.792969 112.492188 25.269531 L 112.214844 24.90625 L 111.289062 25.601562 C 109.667969 26.824219 108.746094 26.667969 107.15625 24.910156 C 105.851562 23.46875 105.851562 23.492188 107.132812 20.53125 C 109.316406 15.5 110.746094 14.375 111.339844 17.222656 C 111.597656 18.476562 111.800781 18.703125 112.652344 18.695312 C 115.195312 18.660156 114.378906 14.753906 111.742188 14.335938 C 109.472656 13.980469 108.238281 14.902344 106.757812 18.066406 C 106.277344 19.097656 105.691406 20.339844 105.460938 20.828125 L 105.039062 21.71875 L 103.574219 19.066406 C 102.769531 17.613281 101.875 15.875 101.585938 15.207031 C 100.988281 13.820312 100.964844 13.882812 102.292969 13.164062 C 105.929688 11.195312 107.394531 9.945312 108.355469 8 C 110.566406 3.511719 106.792969 -0.410156 101.960938 1.351562 M 104.867188 3.242188 C 107.394531 3.945312 107.082031 7.699219 104.3125 9.796875 C 102.714844 11.007812 100.628906 12.269531 100.472656 12.113281 C 99.898438 11.535156 99.765625 7.511719 100.273438 6.007812 C 100.964844 3.957031 103.007812 2.726562 104.867188 3.242188 M 98.925781 8.140625 C 98.933594 12.808594 100.734375 17.664062 104.789062 23.945312 C 105.820312 25.550781 105.863281 25.832031 104.886719 24.609375 C 100.0625 18.570312 97.363281 10.871094 98.621094 6.71875 C 98.933594 5.679688 98.921875 5.617188 98.925781 8.140625 M 99.160156 17.46875 C 100.109375 19.507812 101.132812 21.371094 102.230469 23.046875 C 103.304688 24.691406 103.304688 24.738281 102.289062 25.484375 C 98.15625 28.519531 93.671875 24.570312 95.636719 19.625 C 96.25 18.074219 98.113281 15.589844 98.40625 15.933594 C 98.457031 15.996094 98.796875 16.683594 99.160156 17.46875 M 42.625 35.441406 C 40.492188 36.273438 39.085938 38.378906 39.285156 40.441406 C 39.90625 46.832031 49.753906 46.484375 49.761719 40.070312 C 49.769531 36.636719 45.933594 34.148438 42.625 35.441406 M 56.566406 35.363281 C 50.691406 37.613281 52.953125 45.828125 59.222656 45.015625 C 64.039062 44.390625 65.0625 37.789062 60.675781 35.640625 C 59.660156 35.144531 57.519531 35 56.566406 35.363281 M 83.34375 35.355469 C 80.769531 36.503906 81.351562 39.25 84.507812 40.847656 C 86.316406 41.765625 86.832031 42.488281 86.363281 43.46875 C 85.710938 44.835938 83.242188 44.019531 82.574219 42.214844 C 82.25 41.339844 82.296875 41.390625 81.929688 41.507812 C 81.511719 41.640625 81.441406 44.933594 81.855469 45.089844 C 82.234375 45.238281 82.3125 45.203125 82.492188 44.808594 L 82.660156 44.433594 L 83.449219 44.746094 C 85.847656 45.695312 88.210938 44.417969 88.210938 42.175781 C 88.210938 40.890625 87.542969 40.105469 85.585938 39.085938 C 83.824219 38.171875 83.339844 37.519531 83.777344 36.667969 C 84.492188 35.285156 86.359375 36.132812 86.652344 37.976562 C 86.734375 38.496094 86.804688 38.589844 87.105469 38.589844 C 87.460938 38.589844 87.460938 38.582031 87.460938 36.867188 C 87.460938 35.152344 87.460938 35.144531 87.105469 35.144531 C 86.867188 35.144531 86.71875 35.25 86.664062 35.460938 L 86.582031 35.78125 L 86.066406 35.460938 C 85.464844 35.089844 84.0625 35.035156 83.34375 35.355469 M 159.21875 35.3125 C 156.554688 36.375 157.171875 39.378906 160.351562 40.847656 C 161.957031 41.585938 162.601562 42.457031 162.21875 43.375 C 161.632812 44.789062 159.367188 44.164062 158.429688 42.328125 C 157.726562 40.957031 157.503906 41.171875 157.457031 43.253906 C 157.410156 45.199219 157.574219 45.542969 158.214844 44.824219 L 158.535156 44.460938 L 159.289062 44.757812 C 161.140625 45.488281 163.1875 44.851562 163.878906 43.328125 C 164.636719 41.65625 163.890625 40.367188 161.429688 39.089844 C 159.445312 38.0625 158.925781 37.226562 159.757812 36.394531 C 160.65625 35.492188 162.140625 36.28125 162.519531 37.859375 C 162.667969 38.484375 162.75 38.589844 163.054688 38.589844 C 163.414062 38.589844 163.414062 38.585938 163.414062 36.867188 C 163.414062 35.046875 163.113281 34.546875 162.550781 35.441406 C 162.367188 35.738281 162.363281 35.738281 161.878906 35.441406 C 161.34375 35.117188 159.894531 35.046875 159.21875 35.3125 M 27.386719 35.742188 C 27.386719 35.945312 27.519531 36.066406 27.800781 36.125 C 28.863281 36.347656 28.921875 36.589844 28.859375 40.539062 C 28.808594 43.933594 28.769531 44.082031 27.9375 44.164062 C 27.574219 44.199219 27.453125 44.289062 27.414062 44.554688 L 27.363281 44.902344 L 30.859375 44.855469 C 34.148438 44.8125 34.390625 44.789062 34.984375 44.472656 C 36.6875 43.5625 36.824219 41.082031 35.234375 40.011719 L 34.769531 39.695312 L 35.117188 39.292969 C 36.085938 38.167969 35.632812 36.371094 34.214844 35.730469 C 33.25 35.289062 27.386719 35.300781 27.386719 35.742188 M 66.636719 35.726562 C 66.636719 36.019531 66.914062 36.195312 67.382812 36.195312 C 67.996094 36.195312 68.050781 36.816406 67.992188 43.1875 C 67.984375 43.78125 67.648438 44.132812 67.078125 44.132812 C 66.707031 44.132812 66.636719 44.195312 66.636719 44.507812 L 66.636719 44.882812 L 71.730469 44.882812 L 71.730469 44.507812 C 71.730469 44.179688 71.667969 44.132812 71.21875 44.132812 C 70.367188 44.132812 70.234375 43.867188 70.234375 42.15625 C 70.234375 39.875 70.339844 39.867188 72.316406 42 C 74.019531 43.839844 74.105469 43.996094 73.53125 44.132812 C 73.292969 44.1875 73.136719 44.34375 73.105469 44.550781 C 73.058594 44.882812 73.058594 44.882812 75.765625 44.882812 L 78.472656 44.882812 L 78.472656 44.539062 C 78.472656 44.257812 78.347656 44.164062 77.761719 44.007812 C 77.121094 43.835938 72.332031 39.449219 72.332031 39.035156 C 72.332031 38.65625 75.917969 36.199219 76.476562 36.195312 C 77 36.191406 77.273438 36.03125 77.273438 35.726562 C 77.273438 35.464844 77.136719 35.445312 75.253906 35.445312 C 73.300781 35.445312 73.230469 35.457031 73.230469 35.757812 C 73.230469 35.945312 73.351562 36.105469 73.53125 36.148438 C 74.164062 36.316406 73.839844 36.710938 71.582031 38.511719 L 70.308594 39.527344 L 70.265625 38.160156 C 70.21875 36.640625 70.363281 36.195312 70.902344 36.195312 C 71.453125 36.195312 71.730469 36.039062 71.730469 35.726562 C 71.730469 35.460938 71.585938 35.445312 69.183594 35.445312 C 66.785156 35.445312 66.636719 35.460938 66.636719 35.726562 M 92.257812 35.742188 C 92.257812 35.941406 92.386719 36.066406 92.667969 36.128906 C 93.808594 36.382812 93.75 36.164062 93.75 40.242188 C 93.753906 43.90625 93.695312 44.132812 92.773438 44.132812 C 92.320312 44.132812 92.257812 44.179688 92.257812 44.507812 L 92.257812 44.882812 L 96.585938 44.882812 C 101.53125 44.882812 101.09375 45.03125 101.09375 43.363281 C 101.09375 42.054688 100.644531 41.910156 100.210938 43.078125 C 99.917969 43.875 99.734375 43.949219 97.925781 43.96875 C 96.078125 43.988281 95.980469 43.890625 95.882812 41.914062 L 95.8125 40.386719 L 96.738281 40.386719 C 97.949219 40.386719 98.25 40.554688 98.25 41.21875 C 98.25 41.671875 98.296875 41.738281 98.621094 41.738281 L 98.996094 41.738281 L 98.996094 39.777344 C 98.996094 37.835938 98.996094 37.820312 98.660156 37.867188 C 98.402344 37.90625 98.304688 38.046875 98.234375 38.492188 C 98.113281 39.230469 97.933594 39.335938 96.789062 39.335938 L 95.851562 39.339844 L 95.851562 36.34375 L 97.3125 36.347656 C 99.019531 36.347656 99.453125 36.511719 99.691406 37.246094 C 100.050781 38.363281 100.496094 38.035156 100.496094 36.652344 L 100.496094 35.445312 L 96.375 35.445312 C 92.367188 35.445312 92.257812 35.453125 92.257812 35.742188 M 105.164062 35.777344 C 105.207031 36.054688 105.324219 36.128906 105.785156 36.167969 C 106.589844 36.230469 106.636719 36.457031 106.636719 40.214844 C 106.636719 43.90625 106.582031 44.132812 105.65625 44.132812 C 105.203125 44.132812 105.140625 44.179688 105.140625 44.507812 L 105.140625 44.882812 L 114.277344 44.882812 L 114.277344 44.53125 C 114.277344 44.335938 114.320312 43.761719 114.375 43.257812 C 114.492188 42.132812 113.796875 41.769531 113.59375 42.851562 C 113.421875 43.785156 113.128906 43.910156 111.105469 43.910156 C 108.726562 43.910156 108.882812 44.1875 108.882812 40.050781 C 108.882812 36.394531 108.914062 36.277344 109.789062 36.136719 C 110.261719 36.058594 110.390625 35.976562 110.351562 35.777344 C 110.308594 35.546875 110.027344 35.515625 107.710938 35.480469 L 105.117188 35.4375 L 105.164062 35.777344 M 118.050781 35.78125 C 118.085938 36.039062 118.210938 36.128906 118.574219 36.164062 C 119.375 36.242188 119.394531 36.324219 119.386719 40.171875 C 119.378906 44.050781 119.359375 44.132812 118.527344 44.132812 C 118.089844 44.132812 118.023438 44.183594 118.023438 44.507812 L 118.023438 44.882812 L 127.160156 44.882812 L 127.179688 44.097656 C 127.1875 43.664062 127.207031 43.109375 127.214844 42.859375 C 127.238281 42.367188 126.765625 42.203125 126.566406 42.636719 C 125.953125 43.945312 125.957031 43.945312 123.859375 43.96875 C 121.640625 43.992188 121.769531 44.234375 121.769531 40.023438 C 121.769531 36.25 121.765625 36.261719 122.59375 36.171875 C 122.925781 36.132812 123.054688 36.03125 123.089844 35.78125 L 123.136719 35.445312 L 118 35.445312 L 118.050781 35.78125 M 130.90625 35.726562 C 130.90625 36.023438 131.183594 36.195312 131.664062 36.195312 C 132.183594 36.195312 132.253906 36.675781 132.253906 40.21875 C 132.253906 44.007812 132.226562 44.132812 131.34375 44.132812 C 130.976562 44.132812 130.90625 44.195312 130.90625 44.507812 L 130.90625 44.882812 L 139.609375 44.882812 L 139.5625 43.648438 C 139.511719 42.195312 139.148438 41.816406 138.851562 42.910156 C 138.605469 43.828125 138.417969 43.910156 136.5625 43.910156 C 134.503906 43.910156 134.503906 43.90625 134.503906 41.859375 L 134.503906 40.386719 L 135.335938 40.386719 C 136.394531 40.386719 136.710938 40.5625 136.835938 41.214844 C 136.90625 41.59375 137.011719 41.738281 137.214844 41.738281 C 137.476562 41.738281 137.5 41.597656 137.5 39.789062 C 137.5 37.988281 137.476562 37.84375 137.21875 37.84375 C 137.011719 37.84375 136.914062 37.984375 136.851562 38.378906 C 136.714844 39.214844 136.53125 39.339844 135.457031 39.339844 L 134.503906 39.339844 L 134.503906 36.34375 L 135.914062 36.34375 C 137.695312 36.34375 138.054688 36.476562 138.355469 37.242188 C 138.875 38.558594 139.292969 37.894531 139.050781 36.140625 L 138.957031 35.445312 L 134.929688 35.445312 C 131.082031 35.445312 130.90625 35.457031 130.90625 35.726562 M 143.816406 35.78125 C 143.855469 36.039062 143.992188 36.136719 144.429688 36.207031 C 145.238281 36.335938 145.210938 36.210938 145.253906 39.914062 C 145.296875 43.8125 145.25 44.03125 144.347656 44.105469 C 143.867188 44.144531 143.789062 44.203125 143.789062 44.519531 L 143.789062 44.890625 L 146.375 44.847656 C 148.835938 44.808594 148.957031 44.792969 148.957031 44.511719 C 148.957031 44.28125 148.824219 44.191406 148.390625 44.121094 C 147.558594 43.988281 147.480469 43.835938 147.410156 42.242188 C 147.328125 40.375 147.402344 40.40625 149.09375 42.910156 L 150.429688 44.882812 L 152.203125 44.882812 C 153.953125 44.882812 153.976562 44.878906 153.976562 44.539062 C 153.976562 44.257812 153.851562 44.164062 153.308594 44.015625 C 152.25 43.734375 149.332031 40.6875 150.117188 40.6875 C 151.167969 40.6875 152.445312 39.003906 152.285156 37.824219 C 152.027344 35.894531 151.007812 35.445312 146.894531 35.445312 L 143.769531 35.445312 L 143.816406 35.78125 M 45.742188 36.457031 C 46.972656 37.117188 47.667969 39.183594 47.316406 41.128906 C 46.519531 45.496094 41.976562 45.015625 41.65625 40.53125 C 41.433594 37.429688 43.578125 35.289062 45.742188 36.457031 M 59.371094 36.382812 C 62.476562 37.902344 61.570312 44.132812 58.246094 44.132812 C 54.992188 44.132812 54.285156 36.957031 57.472656 36.253906 C 57.695312 36.207031 57.941406 36.148438 58.023438 36.125 C 58.238281 36.0625 59.023438 36.210938 59.371094 36.382812 M 32.617188 36.5625 C 33.996094 37.273438 33.378906 39.339844 31.789062 39.339844 L 31.132812 39.339844 L 31.132812 36.34375 L 31.664062 36.34375 C 31.957031 36.34375 32.386719 36.441406 32.617188 36.5625 M 149.484375 36.871094 C 150.679688 38.015625 149.949219 39.671875 148.171875 39.839844 L 147.386719 39.914062 L 147.386719 36.304688 L 148.210938 36.375 C 148.863281 36.429688 149.136719 36.535156 149.484375 36.871094 M 33.617188 40.855469 C 34.820312 42.058594 33.917969 43.925781 32.148438 43.898438 C 31.191406 43.882812 31.140625 43.78125 31.136719 41.90625 L 31.132812 40.355469 L 32.183594 40.414062 C 33.066406 40.464844 33.296875 40.535156 33.617188 40.855469 " fill-opacity="1" fill-rule="evenodd"/></g><path fill="rgb(39.219666%, 45.489502%, 42.349243%)" d="M 82.652344 2.101562 C 82.613281 2.140625 82.351562 2.210938 82.0625 2.261719 C 78.785156 2.832031 77.335938 7.417969 79.234375 11.210938 C 79.9375 12.605469 82.101562 15.546875 83.878906 17.507812 C 84.011719 17.652344 84.210938 17.957031 84.324219 18.183594 C 84.4375 18.40625 84.605469 18.691406 84.703125 18.816406 C 85.566406 19.929688 85.613281 24.054688 84.769531 24.507812 C 83.207031 25.34375 82.460938 23.519531 82.851562 19.824219 L 82.957031 18.8125 L 80.878906 18.851562 C 78.382812 18.898438 78.582031 18.734375 78.5 20.851562 C 78.328125 25.5 80.113281 27.832031 83.867188 27.867188 C 84.992188 27.878906 86 27.746094 86.316406 27.542969 C 86.480469 27.4375 86.554688 27.414062 86.84375 27.375 C 87.054688 27.34375 88.285156 26.132812 88.644531 25.601562 C 89.054688 24.996094 89.515625 23.617188 89.628906 22.636719 C 89.675781 22.222656 89.75 21.671875 89.792969 21.410156 C 89.984375 20.210938 88.992188 17.171875 88.074219 16.160156 C 87.941406 16.015625 87.707031 15.691406 87.550781 15.445312 C 87.273438 15.003906 84.636719 11.625 84.457031 11.476562 C 82.535156 9.90625 82.28125 4.398438 84.15625 5.054688 C 84.796875 5.277344 84.980469 5.957031 84.964844 8.066406 L 84.953125 9.828125 L 86.863281 9.828125 C 89.117188 9.828125 88.976562 9.953125 89.054688 7.878906 C 89.164062 5.015625 88.128906 3.1875 85.964844 2.40625 C 85.335938 2.179688 82.808594 1.949219 82.652344 2.101562 M 135.101562 2.144531 C 134.894531 2.175781 134.625 2.238281 134.503906 2.277344 C 134.378906 2.320312 134.257812 2.351562 134.238281 2.34375 C 134.078125 2.292969 133.144531 2.929688 132.691406 3.398438 C 131.335938 4.8125 130.796875 7.550781 130.691406 13.617188 C 130.519531 23.253906 131.730469 27.246094 134.988281 27.765625 C 139.472656 28.480469 141.425781 26.746094 142.203125 21.363281 C 142.941406 16.226562 142.445312 7.078125 141.289062 4.640625 C 140.320312 2.597656 138.074219 1.6875 135.101562 2.144531 M 7.613281 14.914062 L 7.613281 27.519531 L 10.898438 27.496094 C 16.675781 27.449219 18.527344 26.5 19.230469 23.234375 C 20.070312 19.324219 19.25 15.738281 17.222656 14.453125 C 16.851562 14.214844 16.617188 14.023438 16.710938 14.023438 C 17.726562 14.023438 18.71875 11.757812 18.730469 9.414062 C 18.753906 3.640625 17.523438 2.496094 11.171875 2.375 L 7.613281 2.304688 L 7.613281 14.914062 M 24.53125 2.445312 C 24.523438 2.507812 24.492188 2.695312 24.460938 2.863281 C 24.40625 3.136719 24.316406 3.785156 24.164062 4.957031 C 24.132812 5.207031 23.90625 6.757812 23.660156 8.40625 C 23.414062 10.050781 23.179688 11.671875 23.140625 12 C 23.023438 12.996094 22.734375 15.117188 22.652344 15.59375 C 22.507812 16.457031 22.015625 19.796875 21.925781 20.539062 C 21.816406 21.460938 21.699219 22.367188 21.621094 22.859375 C 21.21875 25.410156 21.101562 26.1875 21.035156 26.792969 L 20.953125 27.503906 L 24.953125 27.503906 L 25.042969 26.792969 C 25.21875 25.421875 25.34375 24.132812 25.332031 23.796875 C 25.324219 23.472656 25.371094 23.460938 26.65625 23.460938 C 27.820312 23.460938 27.988281 23.492188 27.996094 23.722656 C 28 23.996094 28.097656 25.007812 28.265625 26.53125 L 28.363281 27.429688 L 30.796875 27.472656 L 33.230469 27.511719 L 33.230469 27.171875 C 33.230469 26.984375 33.09375 26.054688 32.921875 25.109375 C 32.59375 23.246094 32.5 22.707031 32.410156 22.085938 C 32.351562 21.691406 32.101562 20.304688 31.960938 19.570312 C 31.921875 19.367188 31.851562 18.929688 31.804688 18.597656 C 31.703125 17.894531 31.320312 15.617188 31.207031 15.070312 C 31.164062 14.863281 30.992188 13.851562 30.828125 12.824219 C 30.660156 11.792969 30.492188 10.765625 30.453125 10.539062 C 30.414062 10.3125 30.355469 9.941406 30.320312 9.714844 C 30.28125 9.488281 30.007812 7.855469 29.703125 6.082031 C 29.402344 4.3125 29.140625 2.761719 29.121094 2.636719 C 29.078125 2.390625 24.554688 2.203125 24.53125 2.445312 M 35.628906 14.921875 L 35.628906 27.503906 L 38.023438 27.503906 C 39.34375 27.503906 40.414062 27.453125 40.402344 27.394531 C 40.394531 27.332031 40.394531 24.90625 40.402344 22.003906 L 40.421875 16.726562 L 40.832031 16.90625 C 42 17.417969 42.367188 18.460938 42.371094 21.277344 C 42.375 23.78125 42.605469 26.804688 42.824219 27.214844 C 42.96875 27.484375 43.152344 27.503906 45.3125 27.503906 L 47.644531 27.503906 L 47.539062 27.09375 C 47.480469 26.867188 47.40625 26.546875 47.367188 26.382812 C 47.332031 26.21875 47.269531 24.96875 47.230469 23.609375 C 47.09375 18.839844 46.949219 17.789062 46.257812 16.417969 C 45.933594 15.777344 44.953125 14.777344 44.628906 14.757812 C 44.496094 14.753906 44.578125 14.664062 44.8125 14.558594 C 45.699219 14.167969 46.714844 13.273438 46.714844 12.882812 C 46.714844 12.769531 46.773438 12.675781 46.847656 12.675781 C 47.292969 12.675781 47.777344 9.511719 47.597656 7.730469 C 47.148438 3.21875 45.765625 2.335938 39.121094 2.335938 L 35.628906 2.335938 L 35.628906 14.921875 M 51.164062 2.433594 C 51.105469 2.488281 51.058594 8.15625 51.058594 15.019531 L 51.058594 27.503906 L 55.402344 27.503906 L 55.414062 21.851562 C 55.429688 16 55.449219 15.851562 55.929688 17.992188 C 55.96875 18.15625 56.136719 18.765625 56.308594 19.339844 C 56.480469 19.917969 56.714844 20.738281 56.828125 21.164062 C 56.945312 21.585938 57.25 22.632812 57.507812 23.484375 C 57.761719 24.335938 58.066406 25.371094 58.179688 25.78125 C 58.296875 26.195312 58.449219 26.734375 58.519531 26.980469 L 58.644531 27.429688 L 60.582031 27.472656 L 62.519531 27.511719 L 62.480469 14.960938 L 62.445312 2.410156 L 58.324219 2.410156 L 58.285156 5.558594 C 58.265625 7.289062 58.296875 9.796875 58.359375 11.132812 C 58.515625 14.445312 58.648438 14.78125 56.457031 6.308594 L 55.449219 2.410156 L 53.359375 2.371094 C 52.207031 2.347656 51.21875 2.375 51.164062 2.433594 M 66.339844 14.921875 L 66.339844 27.503906 L 76.226562 27.503906 L 76.226562 23.460938 L 70.832031 23.460938 L 70.832031 16.570312 L 75.027344 16.570312 L 75.027344 12.824219 L 70.832031 12.824219 L 70.832031 6.382812 L 75.625 6.382812 L 75.625 2.335938 L 66.339844 2.335938 L 66.339844 14.921875 M 116.179688 2.433594 C 116.121094 2.488281 116.074219 8.15625 116.074219 15.023438 L 116.074219 27.511719 L 118.285156 27.472656 L 120.496094 27.429688 L 120.472656 21.738281 C 120.460938 18.605469 120.472656 16.113281 120.492188 16.195312 C 120.515625 16.277344 120.644531 16.75 120.777344 17.242188 C 121.265625 19.070312 123.273438 25.984375 123.484375 26.585938 C 123.605469 26.929688 123.707031 27.257812 123.710938 27.320312 C 123.710938 27.378906 124.589844 27.449219 125.664062 27.472656 L 127.613281 27.511719 L 127.535156 2.410156 L 125.476562 2.371094 L 123.417969 2.328125 L 123.402344 7.839844 C 123.394531 11.496094 123.34375 13.195312 123.25 12.898438 C 123.03125 12.203125 122.265625 9.328125 121.332031 5.707031 L 120.480469 2.410156 L 118.378906 2.371094 C 117.226562 2.347656 116.238281 2.375 116.179688 2.433594 M 145.6875 2.4375 C 145.632812 2.492188 145.585938 8.160156 145.585938 15.035156 L 145.585938 27.53125 L 149.371094 27.46875 C 153.800781 27.394531 155.414062 26.957031 156.105469 25.644531 C 156.195312 25.472656 156.316406 25.300781 156.375 25.257812 C 157.300781 24.613281 157.878906 20.136719 157.351562 17.691406 C 157.085938 16.460938 155.78125 14.472656 155.238281 14.472656 C 154.777344 14.472656 154.742188 14.078125 155.179688 13.820312 C 157.917969 12.199219 157.191406 4.386719 154.167969 3.003906 C 152.917969 2.429688 146.144531 1.980469 145.6875 2.4375 M 160.519531 2.4375 C 160.464844 2.492188 160.417969 8.15625 160.417969 15.019531 L 160.417969 27.503906 L 170.457031 27.503906 L 170.457031 23.460938 L 165.210938 23.460938 L 165.210938 2.335938 L 162.914062 2.335938 C 161.652344 2.335938 160.574219 2.382812 160.519531 2.4375 M 172.703125 14.921875 L 172.703125 27.503906 L 182.589844 27.503906 L 182.589844 23.460938 L 177.195312 23.460938 L 177.195312 16.570312 L 181.390625 16.570312 L 181.390625 12.824219 L 177.195312 12.824219 L 177.195312 6.390625 L 179.558594 6.347656 L 181.917969 6.308594 L 181.957031 4.324219 L 182 2.335938 L 172.703125 2.335938 L 172.703125 14.921875 M 137.132812 5.25 C 137.667969 6.066406 137.871094 22.621094 137.363281 24.230469 C 137.15625 24.894531 136.335938 25.113281 135.894531 24.625 C 135.269531 23.933594 135.269531 6.238281 135.898438 5.28125 C 136.234375 4.769531 136.804688 4.753906 137.132812 5.25 M 13.847656 5.960938 C 14.441406 6.554688 14.492188 11.25 13.914062 12.0625 C 13.671875 12.402344 13.5 12.476562 12.867188 12.503906 L 12.109375 12.539062 L 12.109375 5.535156 L 12.863281 5.632812 C 13.277344 5.6875 13.722656 5.835938 13.847656 5.960938 M 151.402344 5.722656 C 152.035156 5.851562 152.296875 6.765625 152.320312 8.945312 C 152.351562 11.824219 152.148438 12.378906 150.996094 12.488281 L 150.230469 12.5625 L 150.230469 5.523438 L 150.644531 5.589844 C 150.871094 5.621094 151.210938 5.683594 151.402344 5.722656 M 41.828125 5.925781 C 42.386719 6.136719 42.652344 6.800781 42.816406 8.382812 C 43.152344 11.605469 42.519531 13.035156 40.863281 12.800781 L 40.496094 12.75 L 40.417969 5.78125 L 40.933594 5.78125 C 41.21875 5.78125 41.621094 5.847656 41.828125 5.925781 M 26.855469 12.824219 C 26.902344 13.441406 26.984375 14.285156 27.039062 14.695312 C 27.09375 15.109375 27.148438 15.582031 27.164062 15.746094 C 27.179688 15.910156 27.242188 16.449219 27.300781 16.945312 C 27.582031 19.324219 27.6875 20.242188 27.6875 20.347656 C 27.6875 20.410156 27.25 20.464844 26.71875 20.464844 L 25.746094 20.464844 L 25.808594 19.976562 C 25.84375 19.710938 26.015625 17.871094 26.191406 15.894531 C 26.609375 11.136719 26.691406 10.757812 26.855469 12.824219 M 13.511719 15.878906 C 14.269531 16.195312 14.523438 16.988281 14.617188 19.339844 C 14.761719 23.082031 14.367188 24.210938 12.90625 24.210938 L 12.109375 24.210938 L 12.109375 15.671875 L 12.5625 15.671875 C 12.8125 15.671875 13.238281 15.761719 13.511719 15.878906 M 151.390625 15.761719 C 152.253906 15.933594 152.667969 17.121094 152.664062 19.414062 C 152.660156 23.695312 152.472656 24.210938 150.914062 24.210938 L 150.230469 24.210938 L 150.230469 15.671875 L 150.585938 15.671875 C 150.78125 15.671875 151.144531 15.710938 151.390625 15.761719 " fill-opacity="1" fill-rule="evenodd"/><path fill="rgb(39.219666%, 48.629761%, 42.349243%)" d="M 62.515625 14.921875 C 62.515625 21.71875 62.535156 24.5 62.554688 21.101562 C 62.578125 17.703125 62.578125 12.140625 62.554688 8.742188 C 62.535156 5.34375 62.515625 8.125 62.515625 14.921875 M 40.835938 12.78125 C 41.023438 12.816406 41.292969 12.8125 41.433594 12.777344 C 41.578125 12.738281 41.425781 12.710938 41.097656 12.710938 C 40.765625 12.714844 40.648438 12.746094 40.835938 12.78125 " fill-opacity="1" fill-rule="evenodd"/><path fill="rgb(97.648621%, 95.689392%, 93.728638%)" d="M 98.558594 7.289062 C 97.710938 11.246094 99.960938 17.765625 104.160156 23.496094 C 105.296875 25.050781 105.308594 24.960938 104.199219 23.199219 C 100.539062 17.382812 98.363281 10.980469 98.796875 7.296875 C 98.914062 6.3125 98.769531 6.308594 98.558594 7.289062 " fill-opacity="1" fill-rule="evenodd"/><path fill="rgb(89.408875%, 77.648926%, 67.449951%)" d="M 98.789062 6.171875 C 98.738281 6.300781 98.761719 6.519531 98.84375 6.65625 C 98.957031 6.855469 98.988281 6.804688 98.992188 6.417969 C 98.996094 5.886719 98.929688 5.800781 98.789062 6.171875 M 98.734375 8.105469 C 98.738281 8.433594 98.765625 8.550781 98.804688 8.363281 C 98.839844 8.179688 98.839844 7.910156 98.800781 7.765625 C 98.761719 7.621094 98.734375 7.773438 98.734375 8.105469 M 98.300781 9.378906 C 98.300781 10.078125 98.328125 10.363281 98.359375 10.015625 C 98.390625 9.664062 98.390625 9.089844 98.359375 8.742188 C 98.328125 8.390625 98.300781 8.679688 98.300781 9.378906 M 104.195312 23.261719 C 104.265625 23.445312 104.238281 23.476562 104.078125 23.386719 C 103.960938 23.316406 103.917969 23.320312 103.984375 23.390625 C 104.234375 23.667969 104.542969 23.597656 104.382812 23.296875 C 104.195312 22.945312 104.066406 22.917969 104.195312 23.261719 M 104.398438 23.996094 C 104.496094 24.109375 104.636719 24.167969 104.714844 24.117188 C 104.890625 24.011719 104.761719 23.863281 104.453125 23.816406 C 104.273438 23.789062 104.261719 23.828125 104.398438 23.996094 M 104.792969 24.3125 C 104.710938 24.449219 105.570312 25.476562 105.675781 25.371094 C 105.710938 25.335938 105.589844 25.140625 105.402344 24.9375 C 105.214844 24.738281 105.054688 24.519531 105.039062 24.453125 C 104.996094 24.253906 104.875 24.183594 104.792969 24.3125 " fill-opacity="1" fill-rule="evenodd"/></svg>