<svg xmlns="http://www.w3.org/2000/svg" xmlns:xlink="http://www.w3.org/1999/xlink" width="300" zoomAndPan="magnify" viewBox="0 0 224.87999 225" height="300" preserveAspectRatio="xMidYMid meet" version="1.0"><defs><clipPath id="id1"><path d="M 0 0.671875 L 224.761719 0.671875 L 224.761719 224.804688 L 0 224.804688 Z M 0 0.671875 " clip-rule="nonzero"/></clipPath><clipPath id="id2"><path d="M 98 38 L 224.761719 38 L 224.761719 224.804688 L 98 224.804688 Z M 98 38 " clip-rule="nonzero"/></clipPath><clipPath id="id3"><path d="M 31 121 L 193 121 L 193 224.804688 L 31 224.804688 Z M 31 121 " clip-rule="nonzero"/></clipPath><clipPath id="id4"><path d="M 31 136 L 193 136 L 193 224.804688 L 31 224.804688 Z M 31 136 " clip-rule="nonzero"/></clipPath></defs><g clip-path="url(#id1)"><path fill="rgb(100%, 86.669922%, 23.529053%)" d="M 224.734375 112.78125 C 224.734375 140.632812 214.546875 166.132812 197.710938 185.734375 C 196.1875 187.507812 194.605469 189.230469 192.96875 190.90625 C 188.800781 195.195312 184.277344 199.15625 179.464844 202.722656 C 160.78125 216.632812 137.621094 224.855469 112.535156 224.855469 C 112.191406 224.855469 111.855469 224.855469 111.511719 224.847656 C 95.855469 224.714844 80.972656 221.367188 67.46875 215.445312 C 59.65625 212.027344 52.320312 207.75 45.566406 202.722656 C 40.675781 199.078125 36.089844 195.054688 31.859375 190.679688 C 30.304688 189.078125 28.800781 187.429688 27.347656 185.742188 C 10.511719 166.140625 0.316406 140.644531 0.316406 112.78125 C 0.316406 50.886719 50.5625 0.707031 112.535156 0.707031 C 155.054688 0.707031 192.054688 24.34375 211.089844 59.179688 C 217.40625 70.734375 221.734375 83.515625 223.640625 97.082031 C 224.363281 102.214844 224.734375 107.457031 224.734375 112.78125 Z M 224.734375 112.78125 " fill-opacity="1" fill-rule="nonzero"/></g><g clip-path="url(#id2)"><path fill="rgb(98.81897%, 76.469421%, 23.919678%)" d="M 225.226562 112.78125 C 225.226562 140.632812 215.039062 166.132812 198.203125 185.734375 C 196.679688 187.507812 195.097656 189.230469 193.460938 190.90625 C 189.292969 195.195312 184.769531 199.15625 179.957031 202.722656 C 161.273438 216.632812 138.113281 224.855469 113.027344 224.855469 C 112.683594 224.855469 112.347656 224.855469 112.003906 224.847656 L 98.421875 200.746094 L 146.496094 38.085938 L 224.132812 97.082031 C 224.855469 102.214844 225.226562 107.457031 225.226562 112.78125 Z M 225.226562 112.78125 " fill-opacity="1" fill-rule="nonzero"/></g><path fill="rgb(65.098572%, 41.569519%, 26.269531%)" d="M 173.949219 93.261719 C 173.835938 93.164062 173.714844 93.066406 173.589844 92.96875 C 169.15625 89.515625 162.375 87.777344 161.40625 82.285156 C 160.367188 76.445312 167.125 72.050781 168.117188 66.199219 C 168.742188 62.5625 167.019531 58.925781 164.890625 55.902344 C 161.679688 51.332031 157.546875 47.871094 152.8125 45 C 148.519531 42.398438 146.136719 35.871094 142.644531 32.082031 C 139.039062 28.171875 134.515625 24.921875 129.335938 23.683594 C 124.152344 22.445312 118.277344 23.457031 114.378906 27.082031 C 113.992188 27.445312 113.554688 27.855469 113.027344 27.820312 C 112.675781 27.796875 112.367188 27.574219 112.085938 27.363281 C 105.300781 22.480469 95.519531 22.199219 88.464844 26.679688 C 86.082031 28.199219 84.03125 30.175781 82 32.136719 C 76.371094 37.574219 70.742188 43.011719 65.375 48.707031 C 61.285156 53.046875 55.820312 59.707031 56.929688 66.199219 C 57.933594 72.042969 64.679688 76.445312 63.640625 82.285156 C 62.664062 87.777344 55.890625 89.515625 51.460938 92.96875 C 51.335938 93.066406 51.222656 93.164062 51.097656 93.261719 C 45.953125 97.503906 44.570312 105.640625 48.019531 111.351562 C 50.921875 116.164062 56.605469 119.089844 58.585938 124.355469 C 60.976562 130.722656 57.054688 137.507812 54.167969 143.664062 C 51.28125 149.832031 49.964844 158.460938 55.566406 162.328125 C 57.503906 163.660156 59.914062 164.101562 61.953125 165.269531 C 69.132812 169.382812 68.648438 179.609375 68.285156 187.867188 C 68.214844 189.5 68.214844 191.25 69.085938 192.636719 C 69.933594 193.972656 71.445312 194.738281 72.929688 195.273438 C 85.808594 199.957031 100.78125 192.058594 107.640625 180.207031 C 109.558594 176.886719 110.886719 173.539062 111.769531 170.144531 C 113.554688 173.554688 115.472656 176.910156 117.390625 180.207031 C 124.25 192.058594 139.222656 199.957031 152.101562 195.273438 C 153.585938 194.730469 155.097656 193.972656 155.945312 192.636719 C 156.816406 191.25 156.816406 189.5 156.746094 187.867188 C 156.382812 179.609375 155.890625 169.382812 163.078125 165.269531 C 165.117188 164.101562 167.527344 163.660156 169.464844 162.328125 C 175.066406 158.460938 173.75 149.824219 170.863281 143.664062 C 167.976562 137.496094 164.054688 130.722656 166.445312 124.355469 C 168.425781 119.089844 174.109375 116.164062 177.011719 111.351562 C 180.476562 105.648438 179.097656 97.511719 173.949219 93.261719 Z M 173.949219 93.261719 " fill-opacity="1" fill-rule="nonzero"/><g clip-path="url(#id3)"><path fill="rgb(93.328857%, 75.689697%, 56.858826%)" d="M 164.132812 162.089844 L 137.15625 153.3125 C 132.175781 151.695312 128.808594 147.054688 128.808594 141.828125 L 128.808594 121.15625 L 96.128906 121.15625 L 96.128906 142.082031 C 96.128906 147.355469 92.707031 152.011719 87.675781 153.601562 L 60.652344 162.125 C 46.65625 166.386719 36.054688 177.261719 31.851562 190.6875 C 36.082031 195.0625 40.664062 199.085938 45.558594 202.734375 C 52.3125 207.757812 59.648438 212.039062 67.460938 215.457031 C 81.253906 221.507812 96.488281 224.863281 112.523438 224.863281 C 137.613281 224.863281 160.773438 216.640625 179.457031 202.734375 C 184.269531 199.167969 188.789062 195.203125 192.960938 190.917969 C 188.824219 177.367188 178.199219 166.394531 164.132812 162.089844 Z M 164.132812 162.089844 " fill-opacity="1" fill-rule="nonzero"/></g><g clip-path="url(#id4)"><path fill="rgb(3.529358%, 15.689087%, 21.958923%)" d="M 164.132812 162.089844 L 137.15625 153.3125 C 132.175781 151.695312 128.808594 147.054688 128.808594 141.828125 L 128.808594 137.621094 C 118.390625 140.527344 106.347656 140.105469 96.128906 136.792969 L 96.128906 142.082031 C 96.128906 147.355469 92.707031 152.011719 87.675781 153.601562 L 60.652344 162.125 C 46.65625 166.386719 36.054688 177.261719 31.851562 190.6875 C 36.082031 195.0625 40.664062 199.085938 45.558594 202.734375 C 52.3125 207.757812 59.648438 212.039062 67.460938 215.457031 C 81.253906 221.507812 96.488281 224.863281 112.523438 224.863281 C 137.613281 224.863281 160.773438 216.640625 179.457031 202.734375 C 184.269531 199.167969 188.789062 195.203125 192.960938 190.917969 C 188.824219 177.367188 178.199219 166.394531 164.132812 162.089844 Z M 164.132812 162.089844 " fill-opacity="1" fill-rule="nonzero"/></g><path fill="rgb(98.429871%, 79.60968%, 59.609985%)" d="M 147.71875 74.863281 C 147.632812 49.867188 132.316406 31.917969 112.507812 31.917969 C 112.5 31.917969 112.480469 31.917969 112.472656 31.917969 C 112.464844 31.917969 112.445312 31.917969 112.4375 31.917969 C 92.636719 31.917969 77.3125 49.867188 77.222656 74.863281 C 77.179688 86.257812 77.496094 89.09375 78.65625 97.363281 C 82.265625 123.070312 106.042969 134.949219 112.4375 134.949219 C 120.273438 134.949219 142.496094 123.070312 146.101562 97.363281 C 147.261719 89.09375 147.761719 86.257812 147.71875 74.863281 Z M 147.71875 74.863281 " fill-opacity="1" fill-rule="nonzero"/><path fill="rgb(65.098572%, 41.569519%, 26.269531%)" d="M 134.171875 84.070312 C 134.445312 82.355469 135.273438 76.890625 137.003906 75.960938 C 139.574219 74.582031 141.835938 80.300781 142.46875 82.066406 C 143.671875 85.433594 144.71875 88.847656 145.625 92.3125 C 145.765625 92.839844 146.277344 93.507812 146.691406 93.15625 C 146.8125 93.050781 146.867188 92.882812 146.910156 92.722656 C 147.78125 89.445312 148.363281 86.257812 148.363281 82.902344 C 148.363281 78.949219 149.277344 75.054688 149.101562 71.050781 C 147.085938 25.609375 112.058594 28.851562 112.039062 28.851562 C 92.238281 28.851562 75.765625 44.882812 75.675781 69.878906 C 75.660156 74.230469 76.054688 78.621094 75.507812 82.902344 C 75.21875 85.160156 75.800781 87.628906 76.257812 89.84375 C 76.511719 91.089844 76.8125 92.328125 77.152344 93.558594 C 77.363281 94.296875 78.367188 96.160156 78.210938 96.871094 C 79.203125 92.417969 80.199219 87.960938 81.191406 83.507812 C 81.691406 81.25 82.238281 78.902344 83.691406 77.101562 C 83.988281 76.726562 84.347656 76.363281 84.816406 76.242188 C 85.519531 76.046875 86.265625 76.460938 86.6875 77.058594 C 87.113281 77.648438 87.261719 78.386719 87.394531 79.097656 C 87.726562 80.976562 87.921875 82.882812 87.992188 84.789062 C 95.757812 84.859375 103.578125 84.78125 111.371094 84.78125 C 117.195312 84.765625 134.015625 85.125 134.171875 84.070312 Z M 134.171875 84.070312 " fill-opacity="1" fill-rule="nonzero"/><path fill="rgb(98.429871%, 79.60968%, 59.609985%)" d="M 77.222656 78.667969 C 76.175781 77.53125 74.578125 76.980469 73.679688 78.550781 C 72.378906 80.800781 72.519531 83.816406 72.703125 86.300781 C 72.851562 88.3125 73.105469 90.335938 73.636719 92.285156 C 74.09375 93.980469 74.71875 96.300781 76.222656 97.355469 C 76.5625 97.589844 77.039062 97.828125 77.46875 97.925781 C 77.707031 97.976562 79.152344 98.003906 78.667969 97.371094 " fill-opacity="1" fill-rule="nonzero"/><path fill="rgb(98.429871%, 79.60968%, 59.609985%)" d="M 147.535156 78.667969 C 148.582031 77.53125 150.183594 76.980469 151.078125 78.550781 C 152.382812 80.800781 152.242188 83.816406 152.054688 86.300781 C 151.90625 88.3125 151.652344 90.335938 151.125 92.285156 C 150.667969 93.980469 150.042969 96.300781 148.539062 97.355469 C 148.195312 97.589844 147.71875 97.828125 147.289062 97.925781 C 147.050781 97.976562 145.609375 98.003906 146.09375 97.371094 " fill-opacity="1" fill-rule="nonzero"/></svg>