<svg xmlns="http://www.w3.org/2000/svg" xmlns:xlink="http://www.w3.org/1999/xlink" width="300" zoomAndPan="magnify" viewBox="0 0 224.87999 225" height="300" preserveAspectRatio="xMidYMid meet" version="1.0"><defs><clipPath id="id1"><path d="M 0 0.0585938 L 224.761719 0.0585938 L 224.761719 224.9375 L 0 224.9375 Z M 0 0.0585938 " clip-rule="nonzero"/></clipPath><clipPath id="id2"><path d="M 98 37 L 224.761719 37 L 224.761719 224.9375 L 98 224.9375 Z M 98 37 " clip-rule="nonzero"/></clipPath><clipPath id="id3"><path d="M 31 120 L 193 120 L 193 224.9375 L 31 224.9375 Z M 31 120 " clip-rule="nonzero"/></clipPath><clipPath id="id4"><path d="M 57 153 L 167 153 L 167 224.9375 L 57 224.9375 Z M 57 153 " clip-rule="nonzero"/></clipPath></defs><g clip-path="url(#id1)"><path fill="rgb(100%, 86.669922%, 23.529053%)" d="M 224.863281 112.542969 C 224.863281 140.488281 214.644531 166.070312 197.75 185.738281 C 196.222656 187.519531 194.636719 189.246094 192.996094 190.929688 C 188.8125 195.230469 184.273438 199.207031 179.445312 202.785156 C 160.699219 216.742188 137.460938 224.992188 112.289062 224.992188 C 111.945312 224.992188 111.609375 224.992188 111.265625 224.984375 C 95.554688 224.851562 80.625 221.492188 67.074219 215.550781 C 59.238281 212.121094 51.878906 207.828125 45.097656 202.785156 C 40.191406 199.128906 35.59375 195.089844 31.347656 190.699219 C 29.785156 189.097656 28.277344 187.4375 26.820312 185.746094 C 9.929688 166.078125 -0.300781 140.496094 -0.300781 112.542969 C -0.300781 50.441406 50.113281 0.09375 112.289062 0.09375 C 154.953125 0.09375 192.078125 23.808594 211.175781 58.761719 C 217.511719 70.355469 221.855469 83.179688 223.769531 96.792969 C 224.492188 101.9375 224.863281 107.203125 224.863281 112.542969 Z M 224.863281 112.542969 " fill-opacity="1" fill-rule="nonzero"/></g><g clip-path="url(#id2)"><path fill="rgb(98.81897%, 76.469421%, 23.919678%)" d="M 225.359375 112.542969 C 225.359375 140.488281 215.136719 166.070312 198.246094 185.738281 C 196.71875 187.519531 195.128906 189.246094 193.488281 190.929688 C 189.304688 195.230469 184.769531 199.207031 179.941406 202.785156 C 161.195312 216.742188 137.957031 224.992188 112.785156 224.992188 C 112.441406 224.992188 112.105469 224.992188 111.761719 224.984375 L 98.132812 200.804688 L 146.367188 37.597656 L 224.265625 96.792969 C 224.988281 101.9375 225.359375 107.203125 225.359375 112.542969 Z M 225.359375 112.542969 " fill-opacity="1" fill-rule="nonzero"/></g><path fill="rgb(82.749939%, 38.819885%, 25.878906%)" d="M 157.761719 99.390625 C 157.957031 96.746094 158.027344 94.09375 157.972656 91.441406 C 157.609375 75.476562 152.738281 59.800781 144.714844 46.03125 C 141.441406 40.40625 137.066406 32.078125 131.363281 28.628906 C 129.386719 27.441406 111.328125 24.515625 111.328125 25.085938 C 111.328125 40.769531 111.328125 56.453125 111.328125 72.132812 C 111.328125 95.980469 105.148438 118.007812 104.523438 141.898438 C 104.363281 148 104.902344 155.035156 109.835938 158.628906 C 116.085938 163.1875 124.929688 159.132812 130.832031 154.125 C 146.773438 140.613281 156.207031 120.25 157.761719 99.390625 Z M 157.761719 99.390625 " fill-opacity="1" fill-rule="nonzero"/><path fill="rgb(82.749939%, 38.819885%, 25.878906%)" d="M 62.59375 99.109375 C 56.203125 62.527344 68.726562 24.433594 112.960938 25.078125 C 111.789062 43.097656 118.75 58.054688 120.535156 75.476562 C 123.464844 104.195312 118.523438 135.527344 117.285156 164.359375 C 106.949219 165.65625 97.082031 159.644531 89.429688 152.582031 C 75.945312 140.171875 66.21875 119.886719 62.59375 99.109375 Z M 62.59375 99.109375 " fill-opacity="1" fill-rule="nonzero"/><g clip-path="url(#id3)"><path fill="rgb(93.328857%, 75.689697%, 56.858826%)" d="M 164.0625 162.015625 L 136.992188 153.210938 C 132 151.585938 128.617188 146.933594 128.617188 141.6875 L 128.617188 120.945312 L 95.832031 120.945312 L 95.832031 141.941406 C 95.832031 147.234375 92.398438 151.90625 87.347656 153.5 L 60.234375 162.050781 C 46.195312 166.328125 35.558594 177.238281 31.339844 190.710938 C 35.585938 195.101562 40.183594 199.136719 45.089844 202.796875 C 51.867188 207.839844 59.230469 212.132812 67.066406 215.558594 C 80.90625 221.632812 96.191406 225 112.28125 225 C 137.453125 225 160.691406 216.75 179.4375 202.796875 C 184.265625 199.214844 188.800781 195.242188 192.984375 190.9375 C 188.835938 177.347656 178.175781 166.335938 164.0625 162.015625 Z M 164.0625 162.015625 " fill-opacity="1" fill-rule="nonzero"/></g><g clip-path="url(#id4)"><path fill="rgb(68.238831%, 41.569519%, 66.268921%)" d="M 166.214844 162.746094 C 165.511719 162.492188 164.796875 162.234375 164.0625 162.015625 L 140.523438 154.355469 C 134.425781 160.824219 126.464844 165.171875 117.128906 166.167969 C 106.90625 167.261719 91.214844 164.105469 86.289062 153.828125 L 62.609375 161.292969 C 67.597656 173.035156 66.191406 186.929688 62.042969 198.871094 C 60.660156 202.847656 58.992188 206.753906 57.050781 210.542969 C 60.296875 212.371094 63.632812 214.054688 67.074219 215.550781 C 80.914062 221.625 96.199219 224.992188 112.289062 224.992188 C 131.496094 224.992188 149.570312 220.179688 165.394531 211.699219 C 159.554688 195.957031 159.421875 178.070312 166.214844 162.746094 Z M 166.214844 162.746094 " fill-opacity="1" fill-rule="nonzero"/></g><path fill="rgb(98.429871%, 79.60968%, 59.609985%)" d="M 147.59375 74.496094 C 147.503906 49.417969 132.140625 31.40625 112.265625 31.40625 C 112.253906 31.40625 112.238281 31.40625 112.230469 31.40625 C 112.21875 31.40625 112.203125 31.40625 112.195312 31.40625 C 92.328125 31.40625 76.953125 49.417969 76.863281 74.496094 C 76.820312 85.929688 77.136719 88.777344 78.300781 97.074219 C 81.921875 122.867188 105.777344 134.785156 112.195312 134.785156 C 120.058594 134.785156 142.351562 122.867188 145.96875 97.074219 C 147.136719 88.777344 147.636719 85.929688 147.59375 74.496094 Z M 147.59375 74.496094 " fill-opacity="1" fill-rule="nonzero"/><path fill="rgb(98.429871%, 79.60968%, 59.609985%)" d="M 76.863281 78.3125 C 75.8125 77.175781 74.207031 76.621094 73.304688 78.199219 C 72 80.457031 72.140625 83.480469 72.328125 85.972656 C 72.476562 87.992188 72.734375 90.019531 73.261719 91.976562 C 73.722656 93.679688 74.347656 96.007812 75.855469 97.0625 C 76.203125 97.300781 76.679688 97.539062 77.109375 97.636719 C 77.347656 97.691406 78.796875 97.714844 78.3125 97.082031 " fill-opacity="1" fill-rule="nonzero"/><path fill="rgb(98.429871%, 79.60968%, 59.609985%)" d="M 147.410156 78.3125 C 148.457031 77.175781 150.066406 76.621094 150.964844 78.199219 C 152.273438 80.457031 152.128906 83.480469 151.945312 85.972656 C 151.796875 87.992188 151.539062 90.019531 151.007812 91.976562 C 150.550781 93.679688 149.925781 96.007812 148.414062 97.0625 C 148.070312 97.300781 147.59375 97.539062 147.160156 97.636719 C 146.921875 97.691406 145.476562 97.714844 145.960938 97.082031 " fill-opacity="1" fill-rule="nonzero"/><path fill="rgb(92.939758%, 43.139648%, 29.019165%)" d="M 137.578125 86.574219 C 139.828125 92.390625 140.472656 99.25 140.605469 105.035156 C 140.886719 117.085938 138.742188 129.179688 134.347656 140.402344 C 132.597656 144.851562 130.5 149.199219 129.351562 153.84375 C 123.695312 176.753906 143.984375 196.808594 165.34375 200.6875 C 159.695312 193.054688 155.457031 184.105469 154.054688 174.675781 C 152.589844 164.792969 150.074219 157.75 154.539062 147.867188 C 157.433594 141.46875 161.476562 135.5625 163.550781 128.84375 C 165.191406 123.519531 165.527344 117.886719 165.847656 112.324219 C 167.011719 92.101562 163.347656 66.730469 152.085938 49.320312 C 143.164062 35.523438 137.320312 27.042969 117.753906 25.015625 C 93.03125 22.460938 79.007812 39.078125 75.378906 53.816406 C 73.722656 60.558594 75.726562 68.089844 80.507812 73.121094 C 89.476562 82.5625 104.480469 81.636719 116.96875 85.394531 C 123.472656 87.351562 129.535156 90.734375 134.601562 95.238281 C 133.957031 94.667969 134.503906 82.253906 134.082031 80.28125 C 135.539062 82.132812 136.675781 84.273438 137.578125 86.574219 Z M 137.578125 86.574219 " fill-opacity="1" fill-rule="nonzero"/></svg>