<svg xmlns="http://www.w3.org/2000/svg" xmlns:xlink="http://www.w3.org/1999/xlink" width="300" zoomAndPan="magnify" viewBox="0 0 224.87999 225" height="300" preserveAspectRatio="xMidYMid meet" version="1.0"><defs><clipPath id="id1"><path d="M 0 0.0585938 L 224.761719 0.0585938 L 224.761719 224.191406 L 0 224.191406 Z M 0 0.0585938 " clip-rule="nonzero"/></clipPath><clipPath id="id2"><path d="M 97 33 L 224.761719 33 L 224.761719 224.191406 L 97 224.191406 Z M 97 33 " clip-rule="nonzero"/></clipPath><clipPath id="id3"><path d="M 31 120 L 193 120 L 193 224.191406 L 31 224.191406 Z M 31 120 " clip-rule="nonzero"/></clipPath><clipPath id="id4"><path d="M 31 153 L 193 153 L 193 224.191406 L 31 224.191406 Z M 31 153 " clip-rule="nonzero"/></clipPath></defs><g clip-path="url(#id1)"><path fill="rgb(66.668701%, 84.709167%, 95.689392%)" d="M 224.117188 112.167969 C 224.117188 140.019531 213.929688 165.519531 197.09375 185.117188 C 195.570312 186.894531 193.988281 188.617188 192.351562 190.292969 C 188.183594 194.582031 183.660156 198.542969 178.847656 202.109375 C 160.164062 216.019531 137.003906 224.242188 111.917969 224.242188 C 111.574219 224.242188 111.238281 224.242188 110.894531 224.234375 C 95.238281 224.101562 80.355469 220.753906 66.851562 214.832031 C 59.039062 211.414062 51.703125 207.136719 44.949219 202.109375 C 40.058594 198.464844 35.476562 194.441406 31.242188 190.066406 C 29.6875 188.464844 28.183594 186.816406 26.730469 185.128906 C 9.894531 165.527344 -0.300781 140.03125 -0.300781 112.167969 C -0.300781 50.273438 49.945312 0.09375 111.917969 0.09375 C 154.4375 0.09375 191.4375 23.730469 210.472656 58.566406 C 216.789062 70.121094 221.117188 82.902344 223.023438 96.46875 C 223.746094 101.597656 224.117188 106.84375 224.117188 112.167969 Z M 224.117188 112.167969 " fill-opacity="1" fill-rule="nonzero"/></g><g clip-path="url(#id2)"><path fill="rgb(36.859131%, 75.689697%, 92.939758%)" d="M 224.609375 112.167969 C 224.609375 140.019531 214.421875 165.519531 197.585938 185.117188 C 196.0625 186.894531 194.480469 188.617188 192.84375 190.292969 C 188.675781 194.582031 184.152344 198.542969 179.34375 202.109375 C 160.65625 216.019531 137.496094 224.242188 112.410156 224.242188 C 112.066406 224.242188 111.730469 224.242188 111.390625 224.234375 L 97.808594 200.132812 L 138.921875 33.914062 L 223.519531 96.46875 C 224.238281 101.597656 224.609375 106.84375 224.609375 112.167969 Z M 224.609375 112.167969 " fill-opacity="1" fill-rule="nonzero"/></g><path fill="rgb(3.529358%, 15.689087%, 21.958923%)" d="M 59.78125 64.523438 C 61.300781 60.613281 63.464844 56.933594 66.128906 53.714844 C 71.777344 46.890625 86.96875 33.007812 96.777344 35.019531 C 110.613281 37.867188 122.3125 60.964844 125.339844 73.328125 C 128.535156 86.375 128.304688 99.992188 128.050781 113.425781 C 127.59375 137.691406 127.097656 162.265625 120.617188 185.664062 C 119.296875 190.417969 117.660156 195.257812 114.386719 198.957031 C 109.460938 204.527344 101.738281 206.582031 94.410156 207.855469 C 78.78125 210.5625 61.433594 206.769531 46.769531 200.820312 C 41.730469 198.773438 36.671875 196.136719 33.46875 191.734375 C 29.765625 186.621094 29.40625 178.898438 32.519531 173.398438 C 36.488281 166.386719 42.617188 167.355469 48.914062 163.328125 C 52.910156 160.78125 55.679688 154.957031 52.574219 151.390625 C 50.972656 149.554688 48.40625 148.992188 46.207031 147.945312 C 38.535156 144.273438 35.96875 132.9375 41.308594 126.324219 C 47.351562 118.835938 60.273438 118.152344 63.933594 109.253906 C 67.097656 101.566406 61.097656 93.488281 58.628906 85.539062 C 56.488281 78.667969 57.167969 71.253906 59.78125 64.523438 Z M 59.78125 64.523438 " fill-opacity="1" fill-rule="nonzero"/><g clip-path="url(#id3)"><path fill="rgb(93.328857%, 75.689697%, 56.858826%)" d="M 163.515625 161.476562 L 136.539062 152.699219 C 131.558594 151.082031 128.191406 146.441406 128.191406 141.214844 L 128.191406 120.542969 L 95.511719 120.542969 L 95.511719 141.46875 C 95.511719 146.742188 92.089844 151.398438 87.058594 152.988281 L 60.035156 161.511719 C 46.039062 165.773438 35.441406 176.648438 31.234375 190.074219 C 35.464844 194.449219 40.050781 198.472656 44.941406 202.121094 C 51.695312 207.144531 59.03125 211.425781 66.84375 214.84375 C 80.636719 220.894531 95.871094 224.25 111.90625 224.25 C 136.996094 224.25 160.15625 216.027344 178.839844 202.121094 C 183.652344 198.554688 188.171875 194.589844 192.34375 190.304688 C 188.207031 176.753906 177.582031 165.78125 163.515625 161.476562 Z M 163.515625 161.476562 " fill-opacity="1" fill-rule="nonzero"/></g><g clip-path="url(#id4)"><path fill="rgb(92.939758%, 43.139648%, 29.019165%)" d="M 163.515625 161.476562 L 142.351562 154.585938 C 125.746094 166.773438 100.886719 165.878906 83.898438 153.980469 L 60.042969 161.503906 C 46.046875 165.761719 35.449219 176.640625 31.242188 190.066406 C 35.476562 194.441406 40.058594 198.464844 44.949219 202.109375 C 51.703125 207.136719 59.039062 211.414062 66.851562 214.832031 C 80.644531 220.886719 95.878906 224.242188 111.917969 224.242188 C 137.003906 224.242188 160.164062 216.019531 178.847656 202.109375 C 183.660156 198.542969 188.183594 194.582031 192.351562 190.292969 C 188.207031 176.753906 177.582031 165.78125 163.515625 161.476562 Z M 163.515625 161.476562 " fill-opacity="1" fill-rule="nonzero"/></g><path fill="rgb(98.429871%, 79.60968%, 59.609985%)" d="M 147.101562 74.25 C 147.015625 49.253906 131.699219 31.304688 111.890625 31.304688 C 111.882812 31.304688 111.863281 31.304688 111.855469 31.304688 C 111.847656 31.304688 111.828125 31.304688 111.820312 31.304688 C 92.019531 31.304688 76.695312 49.253906 76.609375 74.25 C 76.5625 85.644531 76.878906 88.480469 78.042969 96.75 C 81.648438 122.457031 105.425781 134.335938 111.820312 134.335938 C 119.65625 134.335938 141.878906 122.457031 145.484375 96.75 C 146.644531 88.480469 147.148438 85.644531 147.101562 74.25 Z M 147.101562 74.25 " fill-opacity="1" fill-rule="nonzero"/><path fill="rgb(98.429871%, 79.60968%, 59.609985%)" d="M 76.609375 78.054688 C 75.5625 76.917969 73.960938 76.367188 73.0625 77.9375 C 71.761719 80.1875 71.902344 83.203125 72.085938 85.6875 C 72.234375 87.699219 72.492188 89.722656 73.019531 91.671875 C 73.476562 93.367188 74.101562 95.6875 75.605469 96.742188 C 75.949219 96.976562 76.421875 97.214844 76.855469 97.3125 C 77.089844 97.363281 78.535156 97.390625 78.050781 96.757812 " fill-opacity="1" fill-rule="nonzero"/><path fill="rgb(98.429871%, 79.60968%, 59.609985%)" d="M 146.917969 78.054688 C 147.964844 76.917969 149.566406 76.367188 150.464844 77.9375 C 151.765625 80.1875 151.625 83.203125 151.4375 85.6875 C 151.289062 87.699219 151.035156 89.722656 150.507812 91.671875 C 150.050781 93.367188 149.425781 95.6875 147.921875 96.742188 C 147.578125 96.976562 147.101562 97.214844 146.671875 97.3125 C 146.433594 97.363281 144.992188 97.390625 145.476562 96.757812 " fill-opacity="1" fill-rule="nonzero"/><path fill="rgb(3.529358%, 15.689087%, 21.958923%)" d="M 131.972656 90.34375 C 131.410156 95.210938 127.398438 100.238281 130.125 104.234375 C 131.769531 106.644531 135.183594 107.222656 137.046875 109.464844 C 139.785156 112.757812 137.902344 117.808594 135.226562 121.148438 C 132.554688 124.488281 129.015625 127.5625 128.355469 131.789062 C 127.230469 139.011719 134.804688 144.289062 138.058594 150.835938 C 141.894531 158.542969 138.796875 168.960938 131.382812 173.335938 C 138.878906 173.996094 146.195312 168.785156 149.011719 161.820312 C 151.828125 154.851562 150.515625 146.636719 146.59375 140.222656 C 145.386719 138.253906 143.925781 136.375 143.300781 134.152344 C 142.054688 129.707031 144.535156 123.96875 147.078125 120.347656 C 150.074219 116.097656 155.320312 112.714844 153.003906 106.695312 C 152.222656 104.664062 150.902344 102.777344 150.726562 100.605469 C 150.507812 97.839844 152.167969 95.328125 153.671875 92.988281 C 156.53125 88.550781 159.117188 83.710938 159.46875 78.449219 C 159.839844 73.011719 157.800781 67.738281 155.792969 62.667969 C 148.570312 44.410156 138.78125 27.136719 117.328125 24.914062 C 97.789062 22.894531 88.660156 41.933594 94.050781 58.863281 C 96.347656 66.058594 101.746094 72.351562 108.792969 75.101562 C 113.351562 76.882812 118.375 77.175781 122.964844 78.863281 C 127.558594 80.546875 132 84.351562 132.015625 89.238281 C 132.035156 89.605469 132.015625 89.976562 131.972656 90.34375 Z M 131.972656 90.34375 " fill-opacity="1" fill-rule="nonzero"/><path fill="rgb(3.529358%, 15.689087%, 21.958923%)" d="M 92.40625 67.570312 C 96.152344 62.765625 99.910156 57.878906 102.371094 52.308594 C 103.550781 49.628906 104.429688 46.738281 104.21875 43.824219 C 104.007812 40.90625 102.558594 37.953125 99.996094 36.539062 C 97.621094 35.222656 94.640625 35.386719 92.089844 36.347656 C 89.546875 37.304688 87.339844 38.972656 85.175781 40.625 C 80.503906 44.175781 75.65625 47.945312 73.210938 53.277344 C 70.449219 59.304688 70.988281 70.171875 76.335938 74.933594 C 82.886719 80.769531 88.378906 72.738281 92.40625 67.570312 Z M 92.40625 67.570312 " fill-opacity="1" fill-rule="nonzero"/></svg>