<svg xmlns="http://www.w3.org/2000/svg" xmlns:xlink="http://www.w3.org/1999/xlink" width="300" zoomAndPan="magnify" viewBox="0 0 224.87999 225" height="300" preserveAspectRatio="xMidYMid meet" version="1.0"><defs><clipPath id="id1"><path d="M 0 0.0585938 L 224.761719 0.0585938 L 224.761719 224.9375 L 0 224.9375 Z M 0 0.0585938 " clip-rule="nonzero"/></clipPath><clipPath id="id2"><path d="M 67 26 L 224.761719 26 L 224.761719 224.9375 L 67 224.9375 Z M 67 26 " clip-rule="nonzero"/></clipPath><clipPath id="id3"><path d="M 27 146 L 198 146 L 198 224.9375 L 27 224.9375 Z M 27 146 " clip-rule="nonzero"/></clipPath></defs><g clip-path="url(#id1)"><path fill="rgb(59.609985%, 77.648926%, 38.42926%)" d="M 224.933594 112.542969 C 224.933594 140.488281 214.726562 166.070312 197.851562 185.738281 C 192.414062 192.078125 186.269531 197.804688 179.570312 202.785156 C 160.84375 216.742188 137.632812 224.992188 112.492188 224.992188 C 96.421875 224.992188 81.152344 221.625 67.332031 215.550781 C 59.503906 212.121094 52.152344 207.828125 45.382812 202.785156 C 38.691406 197.789062 32.5625 192.078125 27.125 185.746094 C 10.253906 166.078125 0.0351562 140.496094 0.0351562 112.542969 C 0.0351562 50.441406 50.386719 0.09375 112.492188 0.09375 C 155.105469 0.09375 192.183594 23.808594 211.261719 58.761719 C 219.980469 74.734375 224.933594 93.0625 224.933594 112.542969 Z M 224.933594 112.542969 " fill-opacity="1" fill-rule="nonzero"/></g><g clip-path="url(#id2)"><path fill="rgb(34.509277%, 70.588684%, 39.608765%)" d="M 224.933594 112.542969 C 224.933594 140.488281 214.726562 166.070312 197.851562 185.738281 C 192.414062 192.078125 186.269531 197.804688 179.570312 202.785156 C 160.84375 216.742188 137.632812 224.992188 112.492188 224.992188 C 96.421875 224.992188 81.152344 221.625 67.332031 215.550781 L 117.765625 44.570312 L 143.875 44.957031 L 134.769531 26.699219 L 211.261719 58.753906 C 219.980469 74.734375 224.933594 93.0625 224.933594 112.542969 Z M 224.933594 112.542969 " fill-opacity="1" fill-rule="nonzero"/></g><path fill="rgb(98.429871%, 79.60968%, 59.609985%)" d="M 74.667969 76.207031 C 73.546875 74.980469 71.828125 74.398438 70.859375 76.082031 C 69.464844 78.5 69.605469 81.742188 69.808594 84.414062 C 69.976562 86.574219 70.242188 88.742188 70.804688 90.847656 C 71.289062 92.664062 71.960938 95.167969 73.582031 96.296875 C 73.953125 96.554688 74.453125 96.808594 74.921875 96.90625 C 75.175781 96.957031 76.730469 96.984375 76.199219 96.316406 " fill-opacity="1" fill-rule="nonzero"/><path fill="rgb(98.429871%, 79.60968%, 59.609985%)" d="M 150.179688 76.207031 C 151.296875 74.980469 153.015625 74.398438 153.988281 76.082031 C 155.378906 78.5 155.238281 81.742188 155.035156 84.414062 C 154.867188 86.574219 154.605469 88.742188 154.039062 90.847656 C 153.554688 92.664062 152.886719 95.167969 151.261719 96.296875 C 150.894531 96.554688 150.390625 96.808594 149.921875 96.90625 C 149.667969 96.957031 148.117188 96.984375 148.644531 96.316406 " fill-opacity="1" fill-rule="nonzero"/><path fill="rgb(98.429871%, 79.60968%, 59.609985%)" d="M 197.851562 185.738281 C 192.414062 192.078125 186.277344 197.804688 179.570312 202.785156 L 45.382812 202.785156 C 38.683594 197.789062 32.554688 192.078125 27.125 185.746094 C 32.21875 172.761719 43.019531 162.402344 56.949219 158.15625 L 80.132812 149.25 C 89.089844 146.308594 88.683594 141.351562 88.683594 131.921875 L 88.683594 111.855469 L 136.277344 111.855469 L 136.277344 131.902344 C 136.277344 141.34375 136.753906 146.949219 145.726562 149.886719 L 168.054688 158.128906 C 181.984375 162.394531 192.773438 172.753906 197.851562 185.738281 Z M 197.851562 185.738281 " fill-opacity="1" fill-rule="nonzero"/><g clip-path="url(#id3)"><path fill="rgb(3.529358%, 15.689087%, 21.958923%)" d="M 197.851562 185.738281 C 177.234375 209.769531 146.644531 224.992188 112.492188 224.992188 C 78.34375 224.992188 47.753906 209.769531 27.132812 185.746094 C 32.230469 172.761719 43.027344 162.402344 56.957031 158.15625 L 80.140625 149.25 C 82.75 148.386719 84.566406 147.355469 85.828125 146.09375 C 90.382812 150.292969 96.121094 152.777344 102.230469 154.011719 C 105.28125 154.628906 109.390625 175.46875 112.527344 175.503906 C 115.667969 175.546875 117.828125 154.796875 120.839844 154.371094 C 122.25 154.171875 123.679688 153.921875 125.117188 153.613281 C 130.609375 152.441406 136.164062 150.46875 141.011719 147.558594 C 142.234375 148.464844 143.777344 149.242188 145.734375 149.886719 L 168.066406 158.128906 C 181.984375 162.394531 192.773438 172.753906 197.851562 185.738281 Z M 197.851562 185.738281 " fill-opacity="1" fill-rule="nonzero"/></g><path fill="rgb(98.429871%, 79.60968%, 59.609985%)" d="M 150.371094 72.117188 C 150.277344 45.246094 133.789062 30.101562 112.519531 30.101562 C 112.511719 30.101562 112.519531 34.261719 112.519531 30.101562 C 112.519531 30.09375 112.527344 30.101562 112.519531 30.101562 C 91.257812 30.101562 74.761719 45.246094 74.667969 72.117188 C 74.621094 84.371094 75.046875 92.4375 76.289062 101.332031 C 80.15625 128.976562 105.609375 136.726562 112.476562 136.726562 C 120.894531 136.726562 144.871094 128.976562 148.742188 101.332031 C 149.992188 92.4375 150.417969 84.371094 150.371094 72.117188 Z M 150.371094 72.117188 " fill-opacity="1" fill-rule="nonzero"/><path fill="rgb(19.60907%, 12.159729%, 1.179504%)" d="M 142.394531 102.804688 C 138.347656 107.121094 133.007812 109.363281 126.527344 105.773438 C 124.632812 104.726562 123.019531 103.226562 121.125 102.167969 C 115.90625 99.257812 109.238281 100.175781 103.96875 102.980469 C 99.921875 105.128906 95.648438 108.648438 90.746094 107.519531 C 86.460938 106.539062 83.359375 102.636719 81.480469 98.898438 C 77.945312 91.84375 75.734375 84.539062 74.683594 77.019531 C 74.761719 86.625 75.222656 93.679688 76.296875 101.320312 C 80.167969 128.96875 105.617188 136.714844 112.484375 136.714844 C 120.902344 136.714844 144.878906 128.96875 148.75 101.320312 C 149.324219 97.214844 149.71875 93.273438 149.984375 89.015625 C 149.515625 90.480469 148.734375 85.445312 148.53125 87.164062 C 147.753906 93.636719 144.808594 100.230469 142.394531 102.804688 Z M 142.394531 102.804688 " fill-opacity="1" fill-rule="nonzero"/><path fill="rgb(19.60907%, 12.159729%, 1.179504%)" d="M 154.066406 69.3125 C 153.925781 69.128906 153.800781 68.933594 153.695312 68.722656 C 152.910156 67.101562 153.871094 65.230469 154.535156 63.546875 C 155.566406 60.914062 155.566406 57.351562 153.167969 55.84375 C 152.664062 55.527344 152.074219 55.324219 151.625 54.925781 C 150.453125 53.902344 150.609375 52.089844 150.503906 50.527344 C 150.285156 47.238281 147.816406 42.9375 144.429688 41.949219 C 139.996094 40.65625 138.914062 47.398438 137.371094 50.632812 C 136.320312 52.820312 137.546875 58.515625 137.8125 60.914062 C 138.214844 64.542969 139.070312 67.957031 140.597656 71.28125 C 143.566406 77.75 148.628906 82.070312 148.140625 89.878906 C 148.945312 90.277344 149.949219 89.632812 150.277344 88.796875 C 150.964844 87.015625 150.320312 85.109375 151.457031 83.328125 C 152.621094 81.515625 154.191406 80.164062 155.078125 78.121094 C 156.199219 75.554688 156.324219 72.382812 154.683594 70.125 C 154.488281 69.851562 154.269531 69.585938 154.066406 69.3125 Z M 154.066406 69.3125 " fill-opacity="1" fill-rule="nonzero"/><path fill="rgb(19.60907%, 12.159729%, 1.179504%)" d="M 80.183594 81.753906 C 80.808594 81.425781 81.480469 81.152344 82.089844 80.78125 C 89.800781 76.074219 86.742188 65.417969 90.429688 58.71875 C 90.894531 57.863281 91.511719 57.058594 92.367188 56.59375 C 94.042969 55.667969 96.113281 56.25 97.949219 56.785156 C 107.519531 59.574219 117.613281 60.585938 127.558594 59.75 C 132.734375 59.316406 137.253906 57.296875 141.75 54.855469 C 144.730469 53.242188 149.246094 52.042969 151.140625 49.039062 C 152.292969 47.214844 151.933594 44.691406 150.636719 42.957031 C 149.339844 41.21875 147.289062 40.195312 145.1875 39.683594 C 143.566406 39.296875 141.601562 38.972656 140.921875 37.445312 C 140.632812 36.785156 140.65625 36.042969 140.648438 35.320312 C 140.570312 31.558594 138.472656 27.414062 134.777344 26.691406 C 130.722656 25.898438 126.542969 29.476562 122.640625 28.109375 C 120.734375 27.449219 119.421875 25.746094 117.808594 24.539062 C 113.066406 20.953125 105.371094 22.363281 102.195312 27.386719 C 101.773438 28.058594 101.402344 28.796875 100.796875 29.308594 C 99.480469 30.394531 97.507812 30.058594 95.945312 29.363281 C 94.386719 28.664062 92.894531 27.667969 91.1875 27.574219 C 87.316406 27.351562 84.882812 31.644531 83.859375 35.382812 C 83.207031 37.753906 82.519531 40.46875 80.34375 41.625 C 79.433594 42.109375 78.378906 42.234375 77.441406 42.65625 C 75.140625 43.6875 73.941406 46.269531 73.539062 48.757812 C 73.042969 51.789062 73.96875 55.535156 72.683594 58.214844 C 71.855469 59.933594 70.355469 60.402344 70.003906 62.570312 C 69.746094 64.15625 70.207031 65.929688 70.734375 67.417969 C 71.640625 69.964844 72.972656 72.496094 72.761719 75.195312 C 72.636719 76.816406 71.960938 78.332031 71.492188 79.882812 C 70.726562 82.449219 70.671875 85.578125 71.878906 88.019531 C 72.628906 89.535156 75.652344 93.308594 77.195312 90.390625 C 77.585938 89.652344 77.574219 88.777344 77.558594 87.941406 C 77.511719 86.0625 77.574219 83.972656 78.898438 82.652344 C 79.269531 82.28125 79.71875 82 80.183594 81.753906 Z M 80.183594 81.753906 " fill-opacity="1" fill-rule="nonzero"/><path fill="rgb(98.429871%, 79.60968%, 59.609985%)" d="M 125.960938 113.945312 C 125.960938 119.339844 119.949219 126.4375 112.527344 126.4375 C 105.105469 126.4375 99.09375 119.347656 99.09375 113.945312 C 99.09375 108.550781 105.105469 106.894531 112.527344 106.894531 C 119.949219 106.894531 125.960938 108.550781 125.960938 113.945312 Z M 125.960938 113.945312 " fill-opacity="1" fill-rule="nonzero"/></svg>